<?xml version="1.0" encoding="UTF-8" standalone="no"?>
<svg
   height="24"
   viewBox="0 -960 960 960"
   width="24"
   fill="#000000"
   version="1.1"
   id="svg4"
   sodipodi:docname="ballast-24px.svg"
   inkscape:export-filename="ballast-24px.png"
   inkscape:export-xdpi="9.14"
   inkscape:export-ydpi="9.14"
   xmlns:inkscape="http://www.inkscape.org/namespaces/inkscape"
   xmlns:sodipodi="http://sodipodi.sourceforge.net/DTD/sodipodi-0.dtd"
   xmlns="http://www.w3.org/2000/svg"
   xmlns:svg="http://www.w3.org/2000/svg">
  <defs
     id="defs8" />
  <sodipodi:namedview
     id="namedview6"
     pagecolor="#ffffff"
     bordercolor="#666666"
     borderopacity="1.0"
     inkscape:showpageshadow="2"
     inkscape:pageopacity="0.0"
     inkscape:pagecheckerboard="0"
     inkscape:deskcolor="#d1d1d1"
     showgrid="false" />
  <path
     d="M 240,-200 H 720 L 663,-600 H 297 Z m 240,-480 q 17,0 28.5,-11.5 Q 520,-703 520,-720 520,-737 508.5,-748.5 497,-760 480,-760 q -17,0 -28.5,11.5 -11.5,11.5 -11.5,28.5 0,17 11.5,28.5 11.5,11.5 28.5,11.5 z m 113,0 h 70 q 30,0 52,20 22,20 27,49 l 57,400 q 5,36 -18.5,63.5 Q 757,-120 720,-120 H 240 q -37,0 -60.5,-27.5 Q 156,-175 161,-211 l 57,-400 q 5,-29 27,-49 22,-20 52,-20 h 70 q -3,-10 -5,-19.5 -2,-9.5 -2,-20.5 0,-50 35,-85 35,-35 85,-35 50,0 85,35 35,35 35,85 0,11 -2,20.5 -2,9.5 -5,19.5 z m -353,480 h 480 z"
     id="path2"
     inkscape:transform-center-x="27.026965"
     inkscape:transform-center-y="-63.541127" />
  <path
     style="fill:#000000;stroke:#0e0000;stroke-width:1.64119;stroke-linecap:round;stroke-linejoin:bevel;stroke-opacity:1"
     d="m 261.06545,-404.19487 c 16.74786,-117.79022 30.47187,-214.84593 30.49782,-215.6794 0.0375,-1.20594 38.90067,-1.33288 190.31546,-0.62167 151.4148,0.71121 190.27523,1.2033 190.30225,2.40948 0.0186,0.83367 12.89712,98.01433 28.61858,215.95707 l 28.58465,214.4413 -249.38467,-1.17139 -249.38473,-1.17138 z"
     id="path497"
     inkscape:transform-center-x="35.809554"
     inkscape:transform-center-y="-36.672129" />
</svg>
