<?xml version="1.0" encoding="UTF-8"?>
<svg width="24" height="24" fill="#000000" version="1.1" viewBox="0 -960 960 960" xmlns="http://www.w3.org/2000/svg">
 <path d="m240-200h480l-57-400h-366zm240-480q17 0 28.5-11.5t11.5-28.5-11.5-28.5-28.5-11.5-28.5 11.5-11.5 28.5 11.5 28.5 28.5 11.5zm113 0h70q30 0 52 20t27 49l57 400q5 36-18.5 63.5t-60.5 27.5h-480q-37 0-60.5-27.5t-18.5-63.5l57-400q5-29 27-49t52-20h70q-3-10-5-19.5t-2-20.5q0-50 35-85t85-35 85 35 35 85q0 11-2 20.5t-5 19.5zm-353 480h480z"/>
 <path d="m261.07-404.19c16.748-117.79 30.472-214.85 30.498-215.68 0.0375-1.2059 38.901-1.3329 190.32-0.62167 151.41 0.71121 190.28 1.2033 190.3 2.4095 0.0186 0.83367 12.897 98.014 28.619 215.96l28.585 214.44-498.77-2.3428z" fill="#000" stroke="#0e0000" stroke-linecap="round" stroke-linejoin="bevel" stroke-width="1.6412"/>
</svg>
