<?xml version="1.0" encoding="UTF-8" standalone="no"?>
<!-- Created with Inkscape (http://www.inkscape.org/) -->

<svg
   xmlns:dc="http://purl.org/dc/elements/1.1/"
   xmlns:cc="http://creativecommons.org/ns#"
   xmlns:rdf="http://www.w3.org/1999/02/22-rdf-syntax-ns#"
   xmlns:svg="http://www.w3.org/2000/svg"
   xmlns="http://www.w3.org/2000/svg"
   xmlns:sodipodi="http://sodipodi.sourceforge.net/DTD/sodipodi-0.dtd"
   xmlns:inkscape="http://www.inkscape.org/namespaces/inkscape"
   version="1.1"
   id="svg64"
   width="1043.9408"
   height="537.47595"
   viewBox="0 0 1043.9408 537.47597"
   sodipodi:docname="logo_shark.svg"
   inkscape:export-filename="/home/john/Desktop/output.png"
   inkscape:export-xdpi="96"
   inkscape:export-ydpi="96"
   inkscape:version="0.92.4 (5da689c313, 2019-01-14)">
  <metadata
     id="metadata70">
    <rdf:RDF>
      <cc:Work
         rdf:about="">
        <dc:format>image/svg+xml</dc:format>
        <dc:type
           rdf:resource="http://purl.org/dc/dcmitype/StillImage" />
        <dc:title></dc:title>
      </cc:Work>
    </rdf:RDF>
  </metadata>
  <defs
     id="defs68">
    <clipPath
       clipPathUnits="userSpaceOnUse"
       id="clipPath894">
      <g
         inkscape:label="Clip"
         id="use896">
        <path
           sodipodi:nodetypes="sscssscccscsscccscccccssssssccccscssccsssssccsssssssscccsssssssssccscccsscssssssccsccssssssssssscsscsccsccscscssssssscssscssccscsssscscsccccsscccscscccssscccccccccsccsccsssssccscsssssscsscscsscscscs"
           inkscape:connector-curvature="0"
           id="path913"
           d="m 201,618.37415 c -14.26225,-1.22501 -28.43121,-5.16062 -42,-11.66602 -7.93397,-3.80386 -26.69894,-16.17296 -27.9298,-18.16453 -1.35545,-2.19317 5.36106,1.52428 12.38937,4.90476 31.76293,15.27735 63.90391,12.37981 99.04043,-8.92858 8.81066,-5.34319 10.21525,-6.34939 20.75966,-14.87152 12.94423,-10.4617 24.65081,-21.83258 39.78924,-38.64826 9.1356,-9.6077 18.09825,-20.80194 25.97451,-30.61933 5.17848,-6.44337 10.55491,-13.84249 14.99979,-19.53481 3.58775,-4.59023 10.53231,-13.97086 15.43234,-20.84586 4.90003,-6.875 10.54286,-14.75 12.5396,-17.5 6.2736,-8.64023 15.43564,-21.64314 22.19536,-31.5 3.58325,-5.225 10.48387,-15.125 15.33471,-22 4.85084,-6.875 11.1046,-15.7474 13.89725,-19.71643 2.79265,-3.96904 10.02754,-14.04162 16.07754,-22.3835 6.8671,-9.28 13.49151,-19.47626 19.75,-27.88538 1.7875,-2.05025 5.725,-7.2308 8.75,-11.51234 3.025,-4.28154 6.85,-9.44471 8.5,-11.47372 1.65,-2.029 4.125,-5.20338 5.5,-7.05418 1.375,-1.85079 3.64265,-4.73969 5.03922,-6.41976 1.39657,-1.68008 3.19657,-4.01536 4,-5.18951 8.28375,-10.24688 16.97191,-20.50923 24.46839,-29.86446 3.80645,-4.76645 13.64337,-16.21167 23.20654,-27.00072 2.43754,-2.75 12.83653,-13.4969 23.10887,-23.88201 23.65519,-23.91486 44.74342,-42.1998 62.17698,-53.91168 21.28322,-14.29809 26.63616,-17.39372 41,-23.71051 9.71932,-4.27427 23.17022,-8.9958 25.62764,-8.9958 2.75639,0 1.25003,1.74778 -3.87764,4.49911 -6.69137,3.59036 -16.17892,10.01666 -21.00288,14.22609 -13.54043,10.49963 -26.01626,22.8747 -37.40796,35.7748 -3.83018,4.4 -9.78301,11.6 -13.22851,16 -6.68061,8.53119 -12.9406,17.05001 -18.59961,25 -10.63079,14.8048 -24.14686,35.19824 -36.45211,55 -2.39247,3.85 -5.79215,9.25 -7.55485,12 -10.3648,16.17028 -32.7874,52.9771 -37.32724,61.27285 C 506.76095,349.15142 509.17884,348 485.30094,348 H 464.9505 c -2.75743,7.05523 -4.50822,14.43225 -6.08216,20.5 -6.77671,26.20533 -10.5889,40.6374 -14.26394,54 -1.96642,7.15 -4.64636,16.92898 -5.95542,21.73108 -2.69306,9.87907 -5.10316,13.51416 -19.95567,30.09861 -5.05632,5.64594 -10.76831,12.21349 -12.69331,14.59456 -8.73871,10.80909 -29.76599,33.77437 -42.90425,46.85858 -18.57713,18.5007 -32.46578,30.6055 -50.97077,44.42413 -13.74725,10.0475 -24.48914,16.45672 -38.61867,23.58044 -7.57947,3.84081 -30.86782,11.25048 -40.00631,12.73042 -9.10857,1.47509 -25.8233,2.4298 -32.5,1.85633 z m -27,-26.94167 c -10.44522,-1.81388 -18.95345,-4.48202 -27.75,-8.70227 -5.6375,-2.70466 -10.25,-5.37356 -10.25,-5.93088 0,-0.55732 0.71229,-0.73998 1.58286,-0.40591 0.87057,0.33407 5.9453,0.89329 11.27718,1.24271 19.56786,1.28236 38.08688,-5.3774 56.63996,-20.3687 5.94835,-4.8064 27.83388,-26.95972 35.33505,-35.76742 19.77916,-22.80064 36.4991,-48.63337 51.63215,-74.00001 6.5715,-11.48178 14.3834,-23.45196 20.5668,-34.5 7.71923,-13.81337 12.61799,-22.19849 21.966,-37.59883 3.575,-5.88962 7.625,-12.58106 9,-14.86987 2.81578,-4.68711 14.79678,-22.4918 24.24591,-36.0313 6.29113,-9.01444 16.21263,-21.79707 30.58121,-39.40009 22.88855,-28.04088 74.45841,-82.54648 92.67288,-97.94852 4.95,-4.18569 12.6,-10.78624 17,-14.6679 24.10911,-21.26892 67.49193,-48.43998 96.66115,-60.53976 26.01769,-10.79249 31.73845,-12.82697 51.33885,-18.257715 18.3644,-5.088283 39.45178,-8.908938 61.72156,-11.18284 18.44468,-1.883332 22.68694,-1.905182 23.37184,-0.12038 0.29184,0.760538 -0.67548,4.248038 -2.1496,7.75 -1.47413,3.501963 -5.52866,13.342205 -9.01008,21.867205 -3.48142,8.525 -7.96472,19.325 -9.9629,24 -1.99817,4.675 -3.99315,9.625 -4.43329,11 -0.95312,2.97761 -8.60943,21.43655 -10.36936,25 -1.07482,2.17624 -1.99148,2.53933 -7.07829,2.80369 -7.13677,0.37089 -7.26443,1.71608 1.92681,-20.30369 3.67319,-8.8 9.27324,-22.3 12.44455,-30 3.1713,-7.7 7.23322,-17.53893 9.02647,-21.86429 3.77678,-9.109672 3.45166,-9.770045 -4.43306,-9.004334 -28.38281,2.756346 -55.5973,12.232334 -83.32365,29.012984 -8.62733,5.22146 -30.24912,20.58768 -37.42703,26.59871 -22.89045,19.16926 -44.82658,40.28462 -65.36551,62.91979 -13.7095,15.10871 -42.58973,49.71658 -54.93846,65.83407 -3.85,5.025 -7.45553,9.66887 -8.01229,10.31972 -1.28101,1.49748 -19.17141,25.60499 -26.85199,36.18335 -3.19468,4.4 -14.08217,19.7 -24.19442,34 -23.55019,33.30296 -25.50676,36.09369 -33.29751,47.49352 -5.13541,7.52882 -11.22843,15.69602 -15.64379,22.08371 -7.6656,11.10098 -35.07824,48.87186 -42.40038,58.42194 -29.72797,38.77345 -63.43937,72.34374 -88.60663,88.23576 -8.39516,5.30117 -23.84747,12.18137 -32.13881,14.30993 -7.49293,1.92359 -25.93799,3.32818 -31.35418,2.38762 z M 650.18036,525.4856 c -13.35915,-3.07283 -21.20694,-8.64397 -25.81244,-18.32424 -6.12615,-12.87651 -3.72533,-37.29905 7.2903,-74.16136 2.90745,-9.72939 11.20795,-26.89114 15.16401,-31.35243 12.31493,-13.88769 24.29581,-19.43616 45.67777,-21.15382 9.84901,-0.7912 26.34234,0.72391 33.93518,3.11734 8.19351,2.58278 13.17889,7.3082 17.57315,16.65682 l 3.68155,7.83236 2.09707,-6.80013 c 1.15339,-3.74008 2.5764,-8.66022 3.16224,-10.93365 0.58584,-2.27343 1.67815,-4.64224 2.42735,-5.26403 0.96603,-0.80173 10.77927,-1.05373 33.74282,-0.86649 L 821.5,384.5 l 0.32738,2.30971 c 0.18005,1.27034 -0.87416,6.89534 -2.34269,12.5 -3.42123,13.05716 -13.13537,49.11979 -14.46247,53.69029 -1.67413,5.76564 -16.15708,60.182 -17.16672,64.5 -0.51441,2.2 -1.67834,4.5625 -2.58652,5.25 -1.97299,1.49357 -63.85711,1.79658 -66.18338,0.32407 -1.19763,-0.7581 -1.06554,-2.17336 0.86194,-9.23469 1.25199,-4.58666 2.48129,-9.12688 2.73179,-10.08938 0.78204,-3.00491 -0.74859,-1.96367 -6.76461,4.60176 -7.54254,8.23135 -16.62792,14.11895 -24.91472,16.14548 -9.28593,2.27087 -32.77166,2.83953 -40.81964,0.98836 z m 65.56338,-44.00214 c 11.07387,-3.28859 20.07013,-16.95247 21.00265,-31.89968 0.48049,-7.70171 0.36736,-8.29515 -2.15234,-11.28964 -3.5058,-4.1664 -8.34113,-5.65252 -16.4935,-5.06922 -7.74725,0.55431 -11.77169,2.40349 -17.03569,7.82769 -6.03334,6.21694 -9.2885,14.00283 -9.8343,23.52232 -0.57742,10.07083 0.98862,13.7135 7.08576,16.48169 5.08388,2.30816 10.63454,2.44411 17.42742,0.42684 z m 100.32218,41.57844 c -1.21328,-0.76775 -0.93227,-2.72852 1.8251,-12.73469 1.79255,-6.50496 7.26912,-26.90221 12.17015,-45.32721 15.4573,-58.11037 21.11339,-78.46191 22.16409,-79.75 1.49975,-1.8386 61.64279,-1.79819 64.16092,0.0431 1.67708,1.22631 1.63154,1.76893 -0.88144,10.50392 -1.45743,5.06595 -2.50472,9.9326 -2.32731,10.81478 0.20997,1.04407 2.41184,-1.06575 6.30787,-6.0442 C 930.58797,386.38033 940.26989,382 960.52563,382 c 13.48522,0 21.28361,1.33931 22.23504,3.81869 0.6548,1.70638 -0.2983,5.73512 -8.91442,37.68131 -8.6268,31.98578 -8.70386,32.23138 -10.30547,32.84598 -0.80649,0.30948 -7.6706,-0.1328 -15.25356,-0.98283 -16.05798,-1.80007 -23.36907,-1.00293 -32.93808,3.59133 -13.39689,6.43208 -19.60282,17.45506 -26.4329,46.9502 -2.08933,9.02258 -4.3877,16.77819 -5.10751,17.23469 -1.78532,1.13226 -65.94703,1.05889 -67.74281,-0.0775 z m 145.14154,-0.31193 c -1.14726,-1.38236 -1.15862,-1.33454 12.65889,-53.24997 3.36685,-12.65 8.20869,-30.875 10.75964,-40.5 12.96606,-48.9223 20.55431,-76.57136 21.19071,-77.21198 0.5233,-0.52685 52.2575,-1.161 67.4333,-0.82658 2.8646,0.0631 2.1712,4.0627 -4.3308,24.97801 -3.3444,10.7583 -7.873,25.41055 -10.0634,32.56055 -2.1904,7.15 -4.629,14.99266 -5.4191,17.42814 -0.7902,2.43548 -1.4367,4.79798 -1.4367,5.25 0,1.09959 2.7436,1.05642 3.1667,-0.0498 0.3531,-0.92336 25.8384,-28.77793 36.8722,-40.30004 l 6.5389,-6.82827 h 38.2111 c 45.482,0 43.2271,-1.07814 28.9011,13.81891 -5.1205,5.3246 -13.558,14.16263 -18.75,19.64007 -5.192,5.47743 -13.1218,13.80243 -17.6218,18.5 -11.8764,12.39795 -16.2866,17.40958 -16.3158,18.54102 -0.014,0.55 5.0419,15.97295 11.2359,34.27323 9.5772,28.29622 11.0373,33.41705 9.7617,34.23469 -2.3903,1.53214 -67.2283,1.29065 -69.2482,-0.25792 -0.9138,-0.70064 -3.0301,-6.52386 -4.8153,-13.25 -1.7516,-6.6 -4.4935,-16.95 -6.093,-23 -4.2194,-15.95931 -5.9291,-20.81436 -6.9652,-19.77834 -0.9104,0.91041 -2.7691,7.11909 -7.8669,26.27834 -1.5366,5.775 -3.5567,13.2 -4.4892,16.5 -0.9325,3.3 -2.0672,7.49815 -2.5214,9.32922 -0.4543,1.83108 -1.1272,3.63108 -1.4955,4 -0.3683,0.36893 -15.8636,0.80007 -34.43404,0.9581 -27.07785,0.23042 -33.98214,0.025 -34.8638,-1.03735 z m -533.15344,-3.18488 c -0.94071,-1.13349 -0.31406,-4.75708 2.98315,-17.25 2.29571,-8.6983 4.99893,-19.19009 6.00715,-23.31509 5.06847,-20.73697 6.20269,-25.18561 8.54114,-33.5 4.93617,-17.55068 9.1513,-33.31913 15.77153,-59 3.68638,-14.3 7.26866,-27.125 7.96064,-28.5 l 1.25815,-2.5 29.23768,-0.26515 c 25.57409,-0.23192 29.31179,-0.072 29.82904,1.27591 0.32525,0.84758 -0.57971,6.1419 -2.01102,11.76515 -4.38394,17.22335 -8.52831,32.93805 -10.27012,38.94241 -1.35076,4.65634 -1.42275,6.00278 -0.38765,7.25 2.35101,2.83279 4.84402,1.72011 8.33102,-3.71832 4.16021,-6.48838 11.14159,-13.74412 16.44686,-17.09319 13.57981,-8.57256 44.94539,-10.98199 59.90021,-4.6014 9.16378,3.9098 15.06239,11.77525 16.05688,21.41089 0.68769,6.66312 -0.94901,14.62915 -9.77155,47.55937 -8.00399,29.87497 -11.25808,42.1944 -13.9435,52.78772 -1.01968,4.02237 -2.39605,7.96657 -3.0586,8.76489 -1.01194,1.21932 -5.86189,1.40913 -30.31983,1.18661 -28.86563,-0.26262 -29.11781,-0.28318 -29.4195,-2.39853 -0.28404,-1.99154 2.11556,-11.679 10.49421,-42.36636 1.8771,-6.875 3.67315,-15.45535 3.99123,-19.06745 0.55473,-6.29944 0.4508,-6.71269 -2.54681,-10.12677 -4.33953,-4.94246 -7.8578,-6.17179 -15.91119,-5.55961 -11.00838,0.83681 -17.64738,5.62616 -22.2076,16.02049 -1.02149,2.32834 -5.27626,17.02234 -9.45505,32.65335 -4.17878,15.631 -8.0945,29.0185 -8.70158,29.75 -1.68865,2.03469 -57.11124,1.93581 -58.80489,-0.10492 z"
           style="fill:#000000" />
      </g>
    </clipPath>
  </defs>
  <sodipodi:namedview
     pagecolor="#ffffff"
     bordercolor="#666666"
     borderopacity="1"
     objecttolerance="10"
     gridtolerance="10"
     guidetolerance="10"
     inkscape:pageopacity="0"
     inkscape:pageshadow="2"
     inkscape:window-width="1920"
     inkscape:window-height="1021"
     id="namedview66"
     showgrid="false"
     inkscape:zoom="0.70710678"
     inkscape:cx="440.28853"
     inkscape:cy="506.1677"
     inkscape:window-x="1600"
     inkscape:window-y="31"
     inkscape:window-maximized="1"
     inkscape:current-layer="svg64"
     fit-margin-top="0"
     fit-margin-left="0"
     fit-margin-right="0"
     fit-margin-bottom="0" />
  <path
     style="fill:#f30c05;fill-opacity:1"
     d="m 70.10539,537.30719 c -14.2622,-1.225 -28.4312,-5.1606 -42,-11.666 -7.934,-3.8038 -26.6988998,-16.1729 -27.92979979,-18.1645 -1.35540001,-2.1932 5.36109999,1.5243 12.38939979,4.9048 31.7629,15.2773 63.9039,12.3798 99.0404,-8.9286 8.8107,-5.3432 10.2153,-6.3494 20.7597,-14.8715 12.9442,-10.4618 24.6508,-21.8326 39.7892,-38.6483 9.1356,-9.6077 18.0983,-20.8019 25.9745,-30.6193 5.1785,-6.4434 10.5549,-13.8425 14.9998,-19.5348 3.5878,-4.5903 10.5323,-13.9709 15.4323,-20.8459 4.9001,-6.875 10.5429,-14.75 12.5396,-17.5 6.2736,-8.64024 15.4357,-21.64315 22.1954,-31.50001 3.5833,-5.225 10.4839,-15.125 15.3347,-22 4.8509,-6.875 11.1046,-15.7474 13.8973,-19.71643 2.7926,-3.96904 10.0275,-14.04162 16.0775,-22.3835 6.8671,-9.28 13.4915,-19.47626 19.75,-27.88538 1.7875,-2.05025 5.725,-7.2308 8.75,-11.51234 3.025,-4.28154 6.85,-9.44471 8.5,-11.47372 1.65,-2.029 4.125,-5.20338 5.5,-7.05418 1.375,-1.85079 3.6427,-4.73969 5.0392,-6.41976 1.3966,-1.68008 3.1966,-4.01536 4,-5.18951 8.2838,-10.24688 16.9719,-20.50923 24.4684,-29.86446 3.8065,-4.76645 13.6434,-16.21167 23.2066,-27.00072 2.4375,-2.75 12.8365,-13.4969 23.1088,-23.88201 23.6552,-23.914857 44.7434,-42.199797 62.177,-53.911677 21.2832,-14.29809 26.6362,-17.39372 41,-23.71051 9.7193,-4.27427 23.1702,-8.9958 25.6276,-8.9958 2.7564,0 1.2501,1.74778 -3.8776,4.49911 -6.6914,3.59036 -16.1789,10.01666 -21.0029,14.22609 -13.5404,10.49963 -26.0162,22.8747 -37.4079,35.7748 -3.8302,4.4 -9.783,11.6 -13.2286,16 -6.6806,8.531187 -12.9405,17.050007 -18.5996,24.999997 -10.6307,14.8048 -24.1468,35.19824 -36.4521,55 -2.3924,3.85 -5.7921,9.25 -7.5548,12 -10.3648,16.17028 -32.7874,52.9771 -37.3273,61.27285 -8.4158,15.37857 -5.998,14.22715 -29.8759,14.22715 h -20.3504 c -2.7574,7.05523 -4.5082,14.43225 -6.0822,20.5 -6.7767,26.20533 -10.5889,40.6374 -14.2639,54 -1.9664,7.15 -4.6464,16.92898 -5.9554,21.73111 -2.6931,9.879 -5.1032,13.5141 -19.9557,30.0986 -5.0563,5.6459 -10.7683,12.2135 -12.6933,14.5945 -8.7387,10.8091 -29.766,33.7744 -42.9042,46.8586 -18.5772,18.5007 -32.4658,30.6055 -50.9708,44.4242 -13.7473,10.0475 -24.4892,16.4567 -38.6187,23.5804 -7.5795,3.8408 -30.8678,11.2505 -40.0063,12.7304 -9.1086,1.4751 -25.8233,2.4298 -32.5,1.8563 z"
     id="path930"
     inkscape:connector-curvature="0" />
  <path
     style="fill:#060288;fill-opacity:1"
     d="m 43.10539,510.36559 c -10.4452,-1.8139 -18.9534,-4.482 -27.75,-8.7023 -5.6374998,-2.7047 -10.2499998,-5.3736 -10.2499998,-5.9309 0,-0.5573 0.7123,-0.74 1.5829,-0.4059 0.8705,0.3341 5.9452998,0.8933 11.2770998,1.2427 19.5679,1.2824 38.0869,-5.3774 56.64,-20.3687 5.9483,-4.8064 27.8339,-26.9597 35.3351,-35.7674 19.7791,-22.8006 36.4991,-48.6334 51.6321,-74 6.5715,-11.48179 14.3834,-23.45197 20.5668,-34.50001 7.7192,-13.81337 12.618,-22.19849 21.966,-37.59883 3.575,-5.88962 7.625,-12.58106 9,-14.86987 2.8158,-4.68711 14.7968,-22.4918 24.2459,-36.0313 6.2911,-9.01444 16.2126,-21.79707 30.5812,-39.40009 22.8886,-28.04088 74.4584,-82.54648 92.6729,-97.94852 4.95,-4.18569 12.6,-10.786237 17,-14.667897 24.1091,-21.26892 67.4919,-48.43998 96.6612,-60.53976 26.0176,-10.79249 31.7384,-12.82697 51.3388,-18.25771 18.3644,-5.0882897 39.4518,-8.9089397 61.7216,-11.1828397 18.4446,-1.88333998 22.6869,-1.90518998 23.3718,-0.12038 0.2918,0.76053 -0.6755,4.24803 -2.1496,7.75 -1.4741,3.5019597 -5.5287,13.3421997 -9.0101,21.8671997 -3.4814,8.525 -7.9647,19.325 -9.9629,24 -1.9981,4.675 -3.9931,9.625 -4.4333,11 -0.9531,2.97761 -8.6094,21.43655 -10.3693,25 -1.0749,2.17624 -1.9915,2.53933 -7.0783,2.80369 -7.1368,0.37089 -7.2644,1.71608 1.9268,-20.30369 3.6732,-8.8 9.2732,-22.3 12.4445,-30 3.1713,-7.7 7.2333,-17.53893 9.0265,-21.86429 3.7768,-9.10967 3.4517,-9.77004 -4.433,-9.00433 -28.3829,2.75634 -55.5973,12.23233 -83.3237,29.01298 -8.6273,5.22146 -30.2491,20.58768 -37.427,26.59871 -22.8905,19.16926 -44.8266,40.284617 -65.3655,62.919787 -13.7095,15.10871 -42.5898,49.71658 -54.9385,65.83407 -3.85,5.025 -7.4555,9.66887 -8.0123,10.31972 -1.281,1.49748 -19.1714,25.60499 -26.852,36.18335 -3.1947,4.4 -14.0822,19.7 -24.1944,34 -23.5502,33.30296 -25.5068,36.09369 -33.2975,47.49352 -5.1354,7.52882 -11.2284,15.69602 -15.6438,22.08371 -7.6656,11.10098 -35.0782,48.87188 -42.4004,58.42198 -29.728,38.7734 -63.4393,72.3437 -88.6066,88.2357 -8.3952,5.3012 -23.8475,12.1814 -32.1388,14.31 -7.4929,1.9235 -25.938,3.3281 -31.3542,2.3876 z"
     id="path928"
     inkscape:connector-curvature="0" />
  <path
     style="fill:#000000"
     d="m 565.57999,299.23581 c -1.4084,0.0296 -2.7435,0.0925 -3.9746,0.19141 -21.382,1.71766 -33.3628,7.26661 -45.6777,21.1543 -3.9561,4.46129 -12.2566,21.62217 -15.1641,31.35156 -11.0156,36.86231 -13.4172,61.28561 -7.291,74.16211 4.6055,9.6803 12.4533,15.2514 25.8125,18.3242 8.048,1.8512 31.5344,1.2826 40.8203,-0.9883 8.2868,-2.0265 17.3715,-7.9151 24.9141,-16.1465 6.016,-6.5654 7.5476,-7.6064 6.7656,-4.6015 -0.2505,0.9625 -1.4804,5.5032 -2.7324,10.0898 -1.9275,7.0614 -2.059,8.4763 -0.8614,9.2344 2.3263,1.4725 64.2106,1.1694 66.1836,-0.3242 0.9082,-0.6875 2.0716,-3.05 2.586,-5.25 1.0096,-4.318 15.4918,-58.7344 17.166,-64.5 1.3271,-4.5705 11.0416,-40.6323 14.4629,-53.68946 1.4685,-5.60466 2.5238,-11.22966 2.3437,-12.5 l -0.3281,-2.31055 -32.3809,-0.26367 c -22.9635,-0.18724 -32.7761,0.0635 -33.7421,0.86523 -0.7493,0.62179 -1.8419,2.9922 -2.4278,5.26563 -0.5858,2.27343 -2.0087,7.19351 -3.1621,10.93359 l -2.0976,6.79883 -3.6817,-7.83203 c -4.3943,-9.34862 -9.3787,-14.07347 -17.5722,-16.65625 -6.6438,-2.09425 -20.1022,-3.51591 -29.961,-3.3086 z m 24.5313,52.80079 c 6.4349,-0.0494 10.5203,1.5458 13.5879,5.1914 2.5197,2.99449 2.6328,3.58739 2.1523,11.28909 -0.9325,14.9472 -9.9281,28.6118 -21.002,31.9004 -6.7928,2.0172 -12.3438,1.8804 -17.4277,-0.4278 -6.0971,-2.7682 -7.6633,-6.4116 -7.0859,-16.4824 0.5458,-9.5195 3.8006,-17.3045 9.834,-23.5215 5.264,-5.42418 9.2879,-7.27379 17.0351,-7.8281 1.0191,-0.0729 1.987,-0.11404 2.9063,-0.12109 z"
     id="path926"
     inkscape:connector-curvature="0" />
  <path
     style="fill:#000000"
     d="m 685.17129,441.99499 c -1.2133,-0.7678 -0.9322,-2.7285 1.8251,-12.7347 1.7926,-6.505 7.2691,-26.9022 12.1702,-45.3272 15.4573,-58.11038 21.1134,-78.46192 22.1641,-79.75001 1.4997,-1.8386 61.6428,-1.79819 64.1609,0.0431 1.6771,1.22631 1.6315,1.76893 -0.8815,10.50392 -1.4574,5.06595 -2.5047,9.9326 -2.3273,10.81478 0.21,1.04407 2.4119,-1.06575 6.3079,-6.0442 11.1027,-14.18727 20.7846,-18.5676 41.0403,-18.5676 13.4852,0 21.2836,1.33931 22.2351,3.81869 0.6548,1.70638 -0.2983,5.73512 -8.9145,37.68131 -8.6268,31.98581 -8.7038,32.23141 -10.3054,32.84601 -0.8065,0.3094 -7.6706,-0.1328 -15.2536,-0.9829 -16.058,-1.8 -23.369,-1.0029 -32.9381,3.5914 -13.3968,6.4321 -19.6028,17.455 -26.4329,46.9502 -2.0893,9.0226 -4.3877,16.7782 -5.1075,17.2347 -1.7853,1.1322 -65.947,1.0589 -67.7428,-0.078 z"
     id="path922"
     inkscape:connector-curvature="0" />
  <path
     style="fill:#000000"
     d="m 830.31289,441.68309 c -1.1473,-1.3824 -1.1587,-1.3346 12.6589,-53.25 3.3668,-12.65 8.2086,-30.87501 10.7596,-40.50001 12.9661,-48.9223 20.5543,-76.57136 21.1907,-77.21198 0.5233,-0.52685 52.2575,-1.161 67.4333,-0.82658 2.8646,0.0631 2.1712,4.0627 -4.3308,24.97801 -3.3444,10.7583 -7.873,25.41055 -10.0634,32.56055 -2.1904,7.15 -4.629,14.99266 -5.4191,17.42814 -0.7902,2.43548 -1.4367,4.79798 -1.4367,5.25 0,1.09959 2.7436,1.05642 3.1667,-0.0498 0.3531,-0.92336 25.8384,-28.77793 36.8722,-40.30004 l 6.5389,-6.82827 h 38.21111 c 45.482,0 43.2271,-1.07814 28.9011,13.81891 -5.1205,5.3246 -13.558,14.16263 -18.75,19.64007 -5.192,5.47743 -13.1218,13.80243 -17.62181,18.5 -11.8764,12.3979 -16.2866,17.4096 -16.3158,18.541 -0.014,0.55 5.0419,15.973 11.2359,34.2733 9.57721,28.2962 11.03731,33.417 9.76171,34.2346 -2.3903,1.5322 -67.22831,1.2907 -69.24821,-0.2579 -0.9138,-0.7006 -3.0301,-6.5238 -4.8153,-13.25 -1.7516,-6.6 -4.4935,-16.95 -6.093,-23 -4.2194,-15.9593 -5.9291,-20.8143 -6.9652,-19.7783 -0.9104,0.9104 -2.7691,7.1191 -7.8669,26.2783 -1.5366,5.775 -3.5567,13.2 -4.4892,16.5 -0.9325,3.3 -2.0672,7.4982 -2.5214,9.3292 -0.4543,1.8311 -1.1272,3.6311 -1.4955,4 -0.3683,0.369 -15.8636,0.8001 -34.434,0.9581 -27.0779,0.2305 -33.9822,0.025 -34.8638,-1.0373 z"
     id="path920"
     inkscape:connector-curvature="0" />
  <path
     style="fill:#000000"
     d="m 297.15939,438.49819 c -0.9407,-1.1335 -0.314,-4.7571 2.9832,-17.25 2.2957,-8.6983 4.9989,-19.1901 6.0071,-23.3151 5.0685,-20.737 6.2027,-25.1856 8.5412,-33.5 4.9361,-17.55069 9.1513,-33.31914 15.7715,-59.00001 3.6864,-14.3 7.2687,-27.125 7.9606,-28.5 l 1.2582,-2.5 29.2377,-0.26515 c 25.5741,-0.23192 29.3118,-0.072 29.829,1.27591 0.3253,0.84758 -0.5797,6.1419 -2.011,11.76515 -4.384,17.22335 -8.5283,32.93805 -10.2701,38.94241 -1.3508,4.65634 -1.4228,6.00278 -0.3877,7.25 2.351,2.83279 4.844,1.72011 8.331,-3.71832 4.1602,-6.48838 11.1416,-13.74412 16.4469,-17.09319 13.5798,-8.57256 44.9454,-10.98199 59.9002,-4.6014 9.1638,3.9098 15.0624,11.77525 16.0569,21.41089 0.6877,6.66312 -0.949,14.62915 -9.7716,47.55941 -8.004,29.8749 -11.258,42.1944 -13.9435,52.7877 -1.0197,4.0224 -2.396,7.9666 -3.0586,8.7649 -1.0119,1.2193 -5.8619,1.4091 -30.3198,1.1866 -28.8656,-0.2626 -29.1178,-0.2832 -29.4195,-2.3985 -0.284,-1.9916 2.1156,-11.679 10.4942,-42.3664 1.8771,-6.875 3.6732,-15.4554 3.9912,-19.0675 0.5548,-6.2994 0.4508,-6.7127 -2.5468,-10.1267 -4.3395,-4.9425 -7.8578,-6.17182 -15.9112,-5.5596 -11.0083,0.8368 -17.6473,5.6261 -22.2076,16.0205 -1.0215,2.3283 -5.2762,17.0223 -9.455,32.6533 -4.1788,15.631 -8.0945,29.0185 -8.7016,29.75 -1.6886,2.0347 -57.1112,1.9358 -58.8049,-0.1049 z"
     id="path76"
     inkscape:connector-curvature="0" />
</svg>
