<?xml version="1.0" encoding="UTF-8" standalone="no"?>
<svg
   xmlns:dc="http://purl.org/dc/elements/1.1/"
   xmlns:cc="http://creativecommons.org/ns#"
   xmlns:rdf="http://www.w3.org/1999/02/22-rdf-syntax-ns#"
   xmlns:svg="http://www.w3.org/2000/svg"
   xmlns="http://www.w3.org/2000/svg"
   xmlns:sodipodi="http://sodipodi.sourceforge.net/DTD/sodipodi-0.dtd"
   xmlns:inkscape="http://www.inkscape.org/namespaces/inkscape"
   height="24px"
   viewBox="0 0 24 24"
   width="24px"
   fill="#000000"
   version="1.1"
   id="svg3763"
   sodipodi:docname="caution.svg"
   inkscape:version="0.92.4 (5da689c313, 2019-01-14)">
  <metadata
     id="metadata3769">
    <rdf:RDF>
      <cc:Work
         rdf:about="">
        <dc:format>image/svg+xml</dc:format>
        <dc:type
           rdf:resource="http://purl.org/dc/dcmitype/StillImage" />
        <dc:title></dc:title>
      </cc:Work>
    </rdf:RDF>
  </metadata>
  <defs
     id="defs3767" />
  <sodipodi:namedview
     pagecolor="#ffffff"
     bordercolor="#666666"
     borderopacity="1"
     objecttolerance="10"
     gridtolerance="10"
     guidetolerance="10"
     inkscape:pageopacity="0"
     inkscape:pageshadow="2"
     inkscape:window-width="956"
     inkscape:window-height="1019"
     id="namedview3765"
     showgrid="false"
     inkscape:zoom="32"
     inkscape:cx="6.6210297"
     inkscape:cy="11.481375"
     inkscape:window-x="2560"
     inkscape:window-y="31"
     inkscape:window-maximized="0"
     inkscape:current-layer="svg3763" />
  <path
     d="M12 5.99L19.53 19H4.47L12 5.99M12 2L1 21h22L12 2zm1 14h-2v2h2v-2zm0-6h-2v4h2v-4z"
     id="path3761" />
  <path
     style="fill:#ff0000;stroke-width:0.02898551"
     d="M 4.682261,18.662319 C 4.782226,18.490942 6.466157,15.582246 8.4243293,12.198551 10.382501,8.8148551 11.992663,6.0466793 12.002466,6.0470489 c 0.01526,5.756e-4 7.450016,12.8289771 7.476761,12.9008861 0.0057,0.01527 -3.078972,0.02598 -7.48453,0.02598 H 4.5005059 Z m 8.338029,-1.65942 v -1.014493 h -1.014493 -1.014493 v 1.014493 1.014492 h 1.014493 1.014493 z m 0,-5 V 9.9884058 h -1.014493 -1.014493 v 2.0144932 2.014492 h 1.014493 1.014493 z"
     id="path3771"
     inkscape:connector-curvature="0" />
  <path
     style="fill:#ff0000;stroke-width:0.00390625"
     d="m 5.4150507,17.372699 c 0.00878,-0.02237 3.0624441,-5.290713 3.0671946,-5.291698 0.00335,-6.95e-4 0.00609,-2.02e-4 0.00609,0.0011 0,0.0018 -2.3867884,4.127104 -2.9596337,5.115402 -0.058998,0.101787 -0.1057343,0.178321 -0.1093724,0.179107 -0.00406,8.77e-4 -0.0056,-5.34e-4 -0.00428,-0.0039 z"
     id="path3773"
     inkscape:connector-curvature="0" />
  <path
     style="fill:#ff0000;stroke-width:0.00390625"
     d="m 10.993489,17.002843 v -1.013671 h 1.011719 1.011719 v 1.013671 1.013672 h -1.011719 -1.011719 z m 2.007813,-0.0039 V 15.99699 h -1.001953 -1.001953 v 1.001953 1.001953 h 1.001953 1.001953 z"
     id="path3775"
     inkscape:connector-curvature="0" />
  <path
     style="fill:#ff0000;stroke-width:0.00390625"
     d="m 10.994459,12.958898 9.69e-4,-1.057617 9.91e-4,1.049805 9.91e-4,1.049804 h 1.001946 1.001946 v -1.048828 c 0,-1.046224 1.9e-5,-1.048828 0.0078,-1.048828 0.0078,0 0.0078,0.0026 0.0078,1.056641 v 1.05664 h -1.011719 -1.011719 z"
     id="path3777"
     inkscape:connector-curvature="0" />
  <path
     style="fill:#ff0000;stroke-width:0.00390625"
     d="m 8.5911457,11.885923 c 0,-0.0026 3.0582473,-5.2877657 3.0625523,-5.2925647 0.0016,-0.00178 0.0076,-0.00266 0.01329,-0.00195 0.01014,0.00125 0.008,0.00539 -0.08787,0.1692507 -0.455706,0.7789678 -1.7369851,2.9852385 -2.7664753,4.763672 -0.1789762,0.309179 -0.221501,0.3786 -0.221501,0.361595 z"
     id="path3779"
     inkscape:connector-curvature="0" />
  <path
     style="fill:#ff0000;stroke-width:0.00390625"
     d="m 14.308384,10.00382 c -0.0031,-0.00483 -0.280593,-0.4825196 -0.616699,-1.0615235 -1.166771,-2.0099776 -1.67238,-2.877313 -1.685077,-2.890625 -0.005,-0.00521 -0.006,-0.00521 -0.0095,0 -0.0103,0.015417 -0.09932,0.1653649 -0.204324,0.3441474 -0.10859,0.1848908 -0.11671,0.1975447 -0.125661,0.1958336 -0.0053,-0.00101 -0.0096,-0.00278 -0.0096,-0.00393 0,-0.00116 0.07673,-0.1346593 0.170509,-0.2966698 0.13646,-0.2357439 0.171454,-0.2935397 0.175244,-0.2894316 0.0026,0.00282 0.522972,0.9007385 1.156372,1.9953674 0.6334,1.0946289 1.155007,1.9959473 1.159126,2.0029297 0.0065,0.010991 0.0067,0.012695 0.0013,0.012695 -0.0034,0 -0.0087,-0.004 -0.01175,-0.0088 z"
     id="path3781"
     inkscape:connector-curvature="0" />
  <path
     style="fill:#ff0000;stroke-width:0.00390625"
     d="m 10.994459,11.005773 -9.7e-4,-1.0166015 h 1.011719 1.011719 l -4.53e-4,0.9638675 c -2.49e-4,0.530127 -0.0013,0.960791 -0.0022,0.957031 -9.82e-4,-0.0038 -0.0033,-0.0068 -0.0051,-0.0068 -0.0018,0 -0.0041,0.0031 -0.0051,0.0068 -9.83e-4,0.0038 -0.002,-0.425147 -0.0022,-0.953125 L 13.001421,9.996984 H 11.999475 10.99753 l -9.92e-4,1.012695 -9.91e-4,1.012696 z"
     id="path3783"
     inkscape:connector-curvature="0" />
  <path
     style="fill:#ff0000;stroke-width:0.00390625"
     d="m 11.305814,18.986598 v -0.0098 l 0.940429,-8.6e-5 c 1.488674,-1.36e-4 5.050777,-0.0071 5.879883,-0.01156 0.78285,-0.0042 1.320572,-0.01015 1.343042,-0.01493 l 0.01297,-0.0028 -0.152002,-0.26561 c -0.143748,-0.251187 -0.5974,-1.038138 -0.990619,-1.718426 -0.09801,-0.169558 -0.177294,-0.309186 -0.176194,-0.310287 0.0011,-0.0011 0.0036,-3.6e-4 0.0056,0.0016 0.0028,0.0028 1.290373,2.225209 1.344726,2.321029 l 0.01163,0.02051 h -4.109748 -4.109748 z"
     id="path3785"
     inkscape:connector-curvature="0" />
  <path
     style="fill:#ff0000;stroke-width:0.00390625"
     d="m 8.0644885,19.000551 c 1.5013985,-5.4e-4 3.9570625,-5.4e-4 5.4570315,0 1.499969,5.4e-4 0.271551,9.82e-4 -2.729816,9.82e-4 -3.001367,0 -4.228614,-4.42e-4 -2.7272155,-9.82e-4 z"
     id="path3787"
     inkscape:connector-curvature="0" />
  <path
     style="fill:#ff0000;stroke-width:0.00390625"
     d="m 5.336626,18.987856 v -0.01172 h 2.984375 2.984375 v 0.01172 0.01172 H 8.321001 5.336626 Z"
     id="path3789"
     inkscape:connector-curvature="0" />
  <path
     style="fill:#ff0000;stroke-width:0.00390625"
     d="m 4.7105888,18.973724 c 0.1154786,-5.75e-4 0.3044434,-5.75e-4 0.4199219,0 0.1154785,5.75e-4 0.020996,10e-4 -0.2099609,10e-4 -0.230957,0 -0.3254395,-4.7e-4 -0.209961,-10e-4 z"
     id="path3791"
     inkscape:connector-curvature="0" />
  <path
     style="fill:#ff0000;stroke-width:0.00390625"
     d="m 4.4752373,18.997545 c 0,-0.0079 0.9361452,-1.618549 0.9407136,-1.618549 0.00309,0 0.00452,0.0024 0.00331,0.0055 -0.00226,0.0059 -0.7040931,1.218004 -0.8400194,1.450767 -0.044309,0.07588 -0.080562,0.138718 -0.080562,0.139649 0,9.3e-4 0.1880859,0.0017 0.4179687,0.0017 H 5.334617 v 0.01172 0.01172 H 4.9049248 c -0.2363281,0 -0.4296875,-0.0011 -0.4296875,-0.0025 z"
     id="path3793"
     inkscape:connector-curvature="0" />
  <path
     style="fill:#ffff00;stroke-width:0.00390625"
     d="m 6.7036474,15.174812 c 0.00306,-0.0048 0.4282275,-0.73916 0.9448259,-1.631836 0.855856,-1.478909 1.5618431,-2.698244 1.9637156,-3.391602 L 9.7655801,9.8867257 h 2.2354609 2.23546 l 0.01726,0.030273 c 0.01481,0.025982 1.482862,2.5579253 1.546562,2.6673543 l 0.02295,0.03942 v 1.279911 1.279912 H 11.260681 6.6980914 Z M 13.02249,12.003913 V 9.9882882 H 12.006865 10.99124 v 2.0156248 2.015625 h 1.015625 1.015625 z"
     id="path19"
     inkscape:connector-curvature="0" />
  <path
     style="fill:#fff600;stroke-width:0.01104854;fill-opacity:1"
     d="m 4.5291385,18.938329 c 0.00779,-0.0146 0.4989184,-0.864566 1.0913966,-1.888801 l 1.0772329,-1.862246 4.565811,-4.99e-4 4.56581,-5e-4 v -1.272967 -1.272967 l 1.166893,2.015982 c 1.132554,1.956657 2.311522,3.997679 2.417577,4.185294 0.02866,0.0507 0.04885,0.09545 0.04486,0.09944 -0.01602,0.01602 -2.125287,0.02175 -8.383322,0.02276 l -6.560425,0.0011 z m 8.4939205,-1.934561 v -1.02199 h -1.016466 -1.016466 v 1.02199 1.021991 h 1.016466 1.016466 z"
     id="path21"
     inkscape:connector-curvature="0" />
  <path
     style="fill:#fff600;fill-opacity:1;stroke-width:0.03125"
     d="m 4.6266758,18.792824 c 0.051708,-0.09023 0.5371936,-0.930469 1.0788572,-1.867187 l 0.9848429,-1.703125 4.5718741,-0.01563 4.571873,-0.01563 0.01563,-1.234375 0.01563,-1.234375 1.372332,2.375 c 0.754783,1.30625 1.559484,2.698437 1.788224,3.09375 l 0.415892,0.71875 -0.538224,0.01963 c -0.296023,0.0108 -3.650584,0.02134 -7.45458,0.02344 l -6.9163557,0.0038 z m 8.3949472,-1.789062 v -1.03125 h -1.015625 -1.015625 l -0.0083,0.999729 c -0.0045,0.549852 -0.0014,1.017625 0.007,1.039497 0.01201,0.03129 0.230235,0.03801 1.023886,0.03152 l 1.008627,-0.0082 z"
     id="path4534"
     inkscape:connector-curvature="0" />
  <path
     style="fill:#fff600;fill-opacity:1;stroke-width:0.03125"
     d="m 6.8245011,14.992977 c 0.056855,-0.100464 0.7432159,-1.288609 1.5252472,-2.640323 l 1.421875,-2.4576619 2.2326517,0.00751 2.232653,0.00751 0.789864,1.3593749 0.789865,1.359375 9.22e-4,1.273437 9.19e-4,1.273438 H 11.269814 6.7211289 Z M 13.037248,12.003762 V 9.9881366 h -1.03125 -1.03125 v 2.0156254 2.015625 h 1.03125 1.03125 z"
     id="path4536"
     inkscape:connector-curvature="0" />
  <path
     style="fill:#ffd400;fill-opacity:1;stroke-width:0.03125"
     d="M 9.8282083,9.8204069 C 9.8460201,9.7739904 11.259326,7.3333105 11.718443,6.5561032 l 0.282905,-0.4789084 0.264306,0.4476584 c 0.440548,0.7461608 1.927844,3.3116584 1.927844,3.3254175 0,0.00708 -0.985879,0.012866 -2.190843,0.012866 -1.840114,0 -2.1882186,-0.00684 -2.1744467,-0.04273 z"
     id="path4538"
     inkscape:connector-curvature="0" />
  <path
     style="fill:#ffd400;fill-opacity:1;stroke-width:0.03125"
     d="m 4.5808874,18.870949 c 0.024884,-0.04727 0.5090192,-0.8875 1.0758553,-1.867187 l 1.0306111,-1.78125 4.5733852,-0.01563 4.573384,-0.01563 0.01563,-1.234375 0.01563,-1.234375 0.318024,0.546875 c 0.174913,0.300781 0.980342,1.692968 1.789843,3.09375 l 1.471819,2.546875 -0.305468,0.01977 c -0.168007,0.01087 -3.522626,0.02142 -7.454708,0.02344 l -7.1492397,0.0037 z m 8.2454236,-0.840678 0.210937,-0.01992 v -1.011106 -1.011106 h -1.03125 -1.03125 v 1.013645 1.013645 l 0.101563,0.0126 c 0.173372,0.02152 1.527553,0.02325 1.75,0.0022 z"
     id="path4540"
     inkscape:connector-curvature="0" />
  <path
     style="fill:#000000;fill-opacity:0;stroke-width:0.03125"
     d="m 6.7329631,15.152199 c 0.00655,-0.01289 0.6925672,-1.201264 1.5244897,-2.64083 l 1.5125861,-2.6173922 2.2351461,0.00802 2.235146,0.00802 0.789084,1.3592272 0.789083,1.359228 v 1.273585 1.273585 h -4.548719 c -2.5017956,0 -4.5433628,-0.01055 -4.5368159,-0.02344 z M 13.037248,12.003762 V 9.9881366 h -1.03125 -1.03125 v 2.0156254 2.015625 h 1.03125 1.03125 z"
     id="path4542"
     inkscape:connector-curvature="0" />
  <path
     style="fill:#000000;fill-opacity:0;stroke-width:0.03125"
     d="m 4.5309983,18.963308 c 0,-0.01226 0.4934665,-0.875825 1.0965922,-1.91904 l 1.0965922,-1.896756 4.5440323,0.008 4.544033,0.008 0.0042,-0.13302 c 0.0023,-0.07316 0.01286,-0.628536 0.02344,-1.234167 l 0.01924,-1.101146 1.78125,3.080944 c 0.979688,1.69452 1.785592,3.099517 1.790898,3.122216 0.0078,0.03353 -0.185555,0.04165 -1.03125,0.0433 -0.572494,0.0011 -3.927226,0.01145 -7.45496,0.02297 -3.5277346,0.01152 -6.4140627,0.01091 -6.4140627,-0.0013 z m 8.4505687,-0.94414 c 0.04367,-0.01676 0.04943,-0.137009 0.04943,-1.03125 v -1.012281 h -1.015625 -1.015625 v 1.010416 c 0,0.55573 0.0094,1.019792 0.02083,1.03125 0.02603,0.02603 1.893377,0.02781 1.960985,0.0019 z"
     id="path4544"
     inkscape:connector-curvature="0" />
  <path
     style="fill:#ffd400;fill-opacity:1;stroke-width:0.03125"
     d="M 7.0954466,14.514699 C 7.3010053,14.158058 7.986395,12.973293 8.6185348,11.881887 L 9.7678801,9.8975116 h 2.2329509 2.232951 l 0.788872,1.3593754 0.788872,1.359375 3.62e-4,1.273437 3.6e-4,1.273438 H 11.266976 6.7217037 Z m 5.9279674,-2.516052 0.008,-2.023865 -1.023665,0.00824 -1.023666,0.00824 -0.0081,1.984375 c -0.0045,1.091406 -0.0013,2.002148 0.007,2.023871 0.01183,0.03094 0.233626,0.03771 1.023724,0.03125 l 1.008627,-0.0082 z"
     id="path4546"
     inkscape:connector-curvature="0" />
  <path
     style="fill:#ffd400;fill-opacity:1;stroke-width:0.03125"
     d="m 9.9146146,9.8240841 c -0.066565,-0.019462 -0.058806,-0.038853 0.1831624,-0.4578225 0.981037,-1.6986641 1.884925,-3.234375 1.903686,-3.234375 0.02022,0 0.806111,1.3338145 1.799838,3.0546875 l 0.383466,0.6640625 -2.100322,-0.00311 c -1.155177,-0.00171 -2.1316006,-0.01226 -2.1698304,-0.023437 z"
     id="path4548"
     inkscape:connector-curvature="0" />
  <path
     style="fill:#ffd400;fill-opacity:1;stroke-width:0.0078125"
     d="m 7.505447,14.474425 c 1.582e-4,-0.445633 0.00296,-0.691406 0.00789,-0.691406 0.00421,0 0.00765,-0.0053 0.00765,-0.01172 0,-0.0064 0.00372,-0.01172 0.00827,-0.01172 0.00455,0 0.0061,-0.0035 0.00345,-0.0078 -0.00266,-0.0043 -0.00117,-0.0078 0.0033,-0.0078 0.00447,0 0.010331,-0.0088 0.013027,-0.01953 0.0027,-0.01074 0.00824,-0.01953 0.012329,-0.01953 0.00408,0 0.00525,-0.0035 0.0026,-0.0078 -0.00266,-0.0043 -0.00117,-0.0078 0.0033,-0.0078 0.00447,0 0.010331,-0.0088 0.013027,-0.01953 0.0027,-0.01074 0.00824,-0.01953 0.012329,-0.01953 0.00408,0 0.00525,-0.0035 0.0026,-0.0078 -0.00266,-0.0043 -0.00111,-0.0078 0.00345,-0.0078 0.00455,0 0.00827,-0.0053 0.00827,-0.01172 0,-0.0064 0.00372,-0.01172 0.00827,-0.01172 0.00455,0 0.0061,-0.0035 0.00345,-0.0078 -0.00266,-0.0043 -0.00117,-0.0078 0.0033,-0.0078 0.00447,0 0.010331,-0.0088 0.013027,-0.01953 0.0027,-0.01074 0.00824,-0.01953 0.012329,-0.01953 0.00408,0 0.00525,-0.0035 0.0026,-0.0078 -0.00266,-0.0043 -0.00117,-0.0078 0.0033,-0.0078 0.00447,0 0.010331,-0.0088 0.013027,-0.01953 0.0027,-0.01074 0.00824,-0.01953 0.012329,-0.01953 0.00408,0 0.00525,-0.0035 0.0026,-0.0078 -0.00266,-0.0043 -0.00111,-0.0078 0.00345,-0.0078 0.00455,0 0.00827,-0.0053 0.00827,-0.01172 0,-0.0064 0.00372,-0.01172 0.00827,-0.01172 0.00455,0 0.0061,-0.0035 0.00345,-0.0078 -0.00266,-0.0043 -0.00117,-0.0078 0.0033,-0.0078 0.00447,0 0.010331,-0.0088 0.013027,-0.01953 0.0027,-0.01074 0.00824,-0.01953 0.012329,-0.01953 0.00408,0 0.00525,-0.0035 0.0026,-0.0078 -0.00266,-0.0043 -0.00117,-0.0078 0.0033,-0.0078 0.00447,0 0.010331,-0.0088 0.013027,-0.01953 0.0027,-0.01074 0.00824,-0.01953 0.012329,-0.01953 0.00408,0 0.00525,-0.0035 0.0026,-0.0078 -0.00266,-0.0043 -0.00111,-0.0078 0.00345,-0.0078 0.00455,0 0.00827,-0.0053 0.00827,-0.01172 0,-0.0064 0.00372,-0.01172 0.00827,-0.01172 0.00455,0 0.0061,-0.0035 0.00345,-0.0078 -0.00266,-0.0043 -0.00117,-0.0078 0.0033,-0.0078 0.00447,0 0.010331,-0.0088 0.013027,-0.01953 0.0027,-0.01074 0.00824,-0.01953 0.012329,-0.01953 0.00408,0 0.00525,-0.0035 0.0026,-0.0078 -0.00266,-0.0043 -0.00117,-0.0078 0.0033,-0.0078 0.00447,0 0.010331,-0.0088 0.013027,-0.01953 0.0027,-0.01074 0.00824,-0.01953 0.012329,-0.01953 0.00408,0 0.00525,-0.0035 0.0026,-0.0078 -0.00266,-0.0043 -0.00111,-0.0078 0.00345,-0.0078 0.00455,0 0.00827,-0.0053 0.00827,-0.01172 0,-0.0064 0.00372,-0.01172 0.00827,-0.01172 0.00455,0 0.0061,-0.0035 0.00345,-0.0078 -0.00266,-0.0043 -0.00117,-0.0078 0.0033,-0.0078 0.00447,0 0.010331,-0.0088 0.013027,-0.01953 0.0027,-0.01074 0.00824,-0.01953 0.012329,-0.01953 0.00408,0 0.00525,-0.0035 0.0026,-0.0078 -0.00266,-0.0043 -0.00117,-0.0078 0.0033,-0.0078 0.00447,0 0.010331,-0.0088 0.013027,-0.01953 0.0027,-0.01074 0.00824,-0.01953 0.012329,-0.01953 0.00408,0 0.00525,-0.0035 0.0026,-0.0078 -0.00266,-0.0043 -0.00111,-0.0078 0.00345,-0.0078 0.00455,0 0.00827,-0.0053 0.00827,-0.01172 0,-0.0064 0.00372,-0.01172 0.00827,-0.01172 0.00455,0 0.0061,-0.0035 0.00345,-0.0078 -0.00266,-0.0043 -0.00117,-0.0078 0.0033,-0.0078 0.00447,0 0.010331,-0.0088 0.013027,-0.01953 0.0027,-0.01074 0.00824,-0.01953 0.012329,-0.01953 0.00408,0 0.00525,-0.0035 0.0026,-0.0078 -0.00266,-0.0043 -0.00117,-0.0078 0.0033,-0.0078 0.00447,0 0.010331,-0.0088 0.013027,-0.01953 0.0027,-0.01074 0.00824,-0.01953 0.012329,-0.01953 0.00408,0 0.00525,-0.0035 0.0026,-0.0078 -0.00266,-0.0043 -0.00111,-0.0078 0.00345,-0.0078 0.00455,0 0.00827,-0.0047 0.00827,-0.01052 0,-0.0058 0.00703,-0.01863 0.015625,-0.02854 0.00859,-0.0099 0.015625,-0.02275 0.015625,-0.02854 0,-0.0058 0.00372,-0.01052 0.00827,-0.01052 0.00455,0 0.0061,-0.0035 0.00345,-0.0078 -0.00266,-0.0043 -0.00117,-0.0078 0.0033,-0.0078 0.00447,0 0.010331,-0.0088 0.013027,-0.01953 0.0027,-0.01074 0.00824,-0.01953 0.012329,-0.01953 0.00408,0 0.00525,-0.0035 0.0026,-0.0078 -0.00266,-0.0043 -0.00111,-0.0078 0.00345,-0.0078 0.00455,0 0.00827,-0.0047 0.00827,-0.01052 0,-0.0058 0.00703,-0.01863 0.015625,-0.02854 0.00859,-0.0099 0.015625,-0.02275 0.015625,-0.02854 0,-0.0058 0.00372,-0.01052 0.00827,-0.01052 0.00455,0 0.0061,-0.0035 0.00345,-0.0078 -0.00266,-0.0043 -0.00117,-0.0078 0.0033,-0.0078 0.00447,0 0.010331,-0.0088 0.013027,-0.01953 0.0027,-0.01074 0.00824,-0.01953 0.012329,-0.01953 0.00408,0 0.00525,-0.0035 0.0026,-0.0078 -0.00266,-0.0043 -0.00111,-0.0078 0.00345,-0.0078 0.00455,0 0.00827,-0.0047 0.00827,-0.01052 0,-0.0058 0.00703,-0.01863 0.015625,-0.02854 0.00859,-0.0099 0.015625,-0.02275 0.015625,-0.02854 0,-0.0058 0.00372,-0.01052 0.00827,-0.01052 0.00455,0 0.0061,-0.0035 0.00345,-0.0078 -0.00266,-0.0043 -0.00117,-0.0078 0.0033,-0.0078 0.00447,0 0.010331,-0.0088 0.013027,-0.01953 0.0027,-0.01074 0.00824,-0.01953 0.012329,-0.01953 0.00408,0 0.00525,-0.0035 0.0026,-0.0078 -0.00266,-0.0043 -0.00111,-0.0078 0.00345,-0.0078 0.00455,0 0.00827,-0.0047 0.00827,-0.01052 0,-0.0058 0.00703,-0.01863 0.015625,-0.02854 0.00859,-0.0099 0.015625,-0.02275 0.015625,-0.02854 0,-0.0058 0.00372,-0.01052 0.00827,-0.01052 0.00455,0 0.0061,-0.0035 0.00345,-0.0078 -0.00266,-0.0043 -0.00117,-0.0078 0.0033,-0.0078 0.00447,0 0.010331,-0.0088 0.013027,-0.01953 0.0027,-0.01074 0.00824,-0.01953 0.012329,-0.01953 0.00408,0 0.00525,-0.0035 0.0026,-0.0078 -0.00266,-0.0043 -0.00111,-0.0078 0.00345,-0.0078 0.00455,0 0.00827,-0.0047 0.00827,-0.01052 0,-0.0058 0.00703,-0.01863 0.015625,-0.02854 0.00859,-0.0099 0.015625,-0.02275 0.015625,-0.02854 0,-0.0058 0.00372,-0.01052 0.00827,-0.01052 0.00455,0 0.0061,-0.0035 0.00345,-0.0078 -0.00266,-0.0043 -0.00117,-0.0078 0.0033,-0.0078 0.00447,0 0.010331,-0.0088 0.013027,-0.01953 0.0027,-0.01074 0.00824,-0.01953 0.012329,-0.01953 0.00408,0 0.00525,-0.0035 0.0026,-0.0078 -0.00266,-0.0043 -0.00111,-0.0078 0.00345,-0.0078 0.00455,0 0.00827,-0.0047 0.00827,-0.01052 0,-0.0058 0.00703,-0.01863 0.015625,-0.02854 0.00859,-0.0099 0.015625,-0.02275 0.015625,-0.02854 0,-0.0058 0.00372,-0.01052 0.00827,-0.01052 0.00455,0 0.0061,-0.0035 0.00345,-0.0078 -0.00266,-0.0043 -0.00117,-0.0078 0.0033,-0.0078 0.00447,0 0.010331,-0.0088 0.013027,-0.01953 0.0027,-0.01074 0.00824,-0.01953 0.012329,-0.01953 0.00408,0 0.00525,-0.0035 0.0026,-0.0078 -0.00266,-0.0043 -0.00111,-0.0078 0.00345,-0.0078 0.00455,0 0.00827,-0.0047 0.00827,-0.01052 0,-0.0058 0.00703,-0.01863 0.015625,-0.02854 0.00859,-0.0099 0.015625,-0.02221 0.015625,-0.02734 0,-0.0051 0.00703,-0.01744 0.015625,-0.02734 0.00859,-0.0099 0.015625,-0.02275 0.015625,-0.02854 0,-0.0058 0.00372,-0.01052 0.00827,-0.01052 0.00455,0 0.0061,-0.0035 0.00345,-0.0078 -0.00266,-0.0043 -0.00111,-0.0078 0.00345,-0.0078 0.00455,0 0.00827,-0.0047 0.00827,-0.01052 0,-0.0058 0.00703,-0.01863 0.015625,-0.02854 0.00859,-0.0099 0.015625,-0.02221 0.015625,-0.02734 0,-0.0051 0.00703,-0.01744 0.015625,-0.02734 0.00859,-0.0099 0.015625,-0.02275 0.015625,-0.02854 0,-0.0058 0.00372,-0.01052 0.00827,-0.01052 0.00455,0 0.0061,-0.0035 0.00345,-0.0078 -0.00266,-0.0043 -0.00111,-0.0078 0.00345,-0.0078 0.00455,0 0.00827,-0.0047 0.00827,-0.01052 0,-0.0058 0.00703,-0.01863 0.015625,-0.02854 0.00859,-0.0099 0.015625,-0.02221 0.015625,-0.02734 0,-0.0051 0.00703,-0.01744 0.015625,-0.02734 0.00859,-0.0099 0.015625,-0.02275 0.015625,-0.02854 0,-0.0058 0.00372,-0.01052 0.00827,-0.01052 0.00455,0 0.0061,-0.0035 0.00345,-0.0078 -0.00266,-0.0043 -0.00111,-0.0078 0.00345,-0.0078 0.00455,0 0.00827,-0.0047 0.00827,-0.01052 0,-0.0058 0.00703,-0.01863 0.015625,-0.02854 0.00859,-0.0099 0.015625,-0.02275 0.015625,-0.02854 0,-0.0058 0.00372,-0.01052 0.00827,-0.01052 0.00455,0 0.0061,-0.0035 0.00345,-0.0078 -0.00266,-0.0043 -0.00117,-0.0078 0.0033,-0.0078 0.00447,0 0.010331,-0.0088 0.013027,-0.01953 0.0027,-0.01074 0.00824,-0.01953 0.012329,-0.01953 0.00408,0 0.00525,-0.0035 0.0026,-0.0078 -0.00266,-0.0043 -0.00111,-0.0078 0.00345,-0.0078 0.00455,0 0.00827,-0.0047 0.00827,-0.01052 0,-0.0058 0.00703,-0.01863 0.015625,-0.02854 0.00859,-0.0099 0.015625,-0.02275 0.015625,-0.02854 0,-0.0058 0.00372,-0.01052 0.00827,-0.01052 0.00455,0 0.0061,-0.0035 0.00345,-0.0078 -0.00266,-0.0043 -0.00117,-0.0078 0.0033,-0.0078 0.00447,0 0.010331,-0.0088 0.013027,-0.01953 0.0027,-0.01074 0.00824,-0.01953 0.012329,-0.01953 0.00408,0 0.00525,-0.0035 0.0026,-0.0078 -0.00266,-0.0043 -0.00111,-0.0078 0.00345,-0.0078 0.00455,0 0.00827,-0.0047 0.00827,-0.01052 0,-0.0058 0.00703,-0.01863 0.015625,-0.02854 0.00859,-0.0099 0.015625,-0.02275 0.015625,-0.02854 0,-0.0058 0.00372,-0.01052 0.00827,-0.01052 0.00455,0 0.0061,-0.0035 0.00345,-0.0078 -0.00266,-0.0043 -0.00117,-0.0078 0.0033,-0.0078 0.00447,0 0.010331,-0.0088 0.013027,-0.01953 0.0027,-0.01074 0.00824,-0.01953 0.012329,-0.01953 0.00408,0 0.00525,-0.0035 0.0026,-0.0078 -0.00266,-0.0043 -0.00111,-0.0078 0.00345,-0.0078 0.00455,0 0.00827,-0.0047 0.00827,-0.01052 0,-0.0058 0.00703,-0.01863 0.015625,-0.02854 0.00859,-0.0099 0.015625,-0.02275 0.015625,-0.02854 0,-0.0058 0.00372,-0.01052 0.00827,-0.01052 0.00455,0 0.0061,-0.0035 0.00345,-0.0078 -0.00266,-0.0043 -0.00117,-0.0078 0.0033,-0.0078 0.00447,0 0.010331,-0.0088 0.013027,-0.01953 0.0027,-0.01074 0.00824,-0.01953 0.012329,-0.01953 0.00408,0 0.00525,-0.0035 0.0026,-0.0078 -0.00266,-0.0043 -0.00111,-0.0078 0.00345,-0.0078 0.00455,0 0.00827,-0.0047 0.00827,-0.01052 0,-0.0058 0.00703,-0.01863 0.015625,-0.02854 0.00859,-0.0099 0.015625,-0.02275 0.015625,-0.02854 0,-0.0058 0.00372,-0.01052 0.00827,-0.01052 0.00455,0 0.0061,-0.0035 0.00345,-0.0078 -0.00266,-0.0043 -0.00117,-0.0078 0.0033,-0.0078 0.00447,0 0.010331,-0.0088 0.013027,-0.01953 0.0027,-0.01074 0.00824,-0.01953 0.012329,-0.01953 0.00408,0 0.00525,-0.0035 0.0026,-0.0078 -0.00266,-0.0043 -0.00111,-0.0078 0.00345,-0.0078 0.00455,0 0.00827,-0.0047 0.00827,-0.01052 0,-0.0058 0.00703,-0.01863 0.015625,-0.02854 0.00859,-0.0099 0.015625,-0.02275 0.015625,-0.02854 0,-0.0058 0.00372,-0.01052 0.00827,-0.01052 0.00455,0 0.0061,-0.0035 0.00345,-0.0078 -0.00266,-0.0043 -0.00117,-0.0078 0.0033,-0.0078 0.00447,0 0.010331,-0.0088 0.013027,-0.01953 0.0027,-0.01074 0.00824,-0.01953 0.012329,-0.01953 0.00408,0 0.00525,-0.0035 0.0026,-0.0078 -0.00266,-0.0043 -0.00111,-0.0078 0.00345,-0.0078 0.00455,0 0.00827,-0.0047 0.00827,-0.01052 0,-0.0058 0.00703,-0.01863 0.015625,-0.02854 0.00859,-0.0099 0.015625,-0.02275 0.015625,-0.02854 0,-0.0058 0.00372,-0.01052 0.00827,-0.01052 0.00455,0 0.0061,-0.0035 0.00345,-0.0078 -0.00266,-0.0043 -0.00117,-0.0078 0.0033,-0.0078 0.00447,0 0.010331,-0.0088 0.013027,-0.01953 0.0027,-0.01074 0.00824,-0.01953 0.012329,-0.01953 0.00408,0 0.00525,-0.0035 0.0026,-0.0078 -0.00266,-0.0043 -0.00111,-0.0078 0.00345,-0.0078 0.00455,0 0.00827,-0.0047 0.00827,-0.01052 0,-0.0058 0.00703,-0.01863 0.015625,-0.02854 0.00859,-0.0099 0.015625,-0.02275 0.015625,-0.02854 0,-0.0058 0.00372,-0.01052 0.00827,-0.01052 0.00455,0 0.0061,-0.0035 0.00345,-0.0078 -0.00266,-0.0043 -0.00117,-0.0078 0.0033,-0.0078 0.00447,0 0.010331,-0.0088 0.013027,-0.01953 0.0027,-0.01074 0.00824,-0.01953 0.012329,-0.01953 0.00408,0 0.00525,-0.0035 0.0026,-0.0078 -0.00266,-0.0043 -0.00111,-0.0078 0.00345,-0.0078 0.00455,0 0.00827,-0.0047 0.00827,-0.01052 0,-0.0058 0.00703,-0.01863 0.015625,-0.02854 0.00859,-0.0099 0.015625,-0.02275 0.015625,-0.02854 0,-0.0058 0.00372,-0.01052 0.00827,-0.01052 0.00455,0 0.0061,-0.0035 0.00345,-0.0078 -0.00266,-0.0043 -0.00117,-0.0078 0.0033,-0.0078 0.00447,0 0.010331,-0.0088 0.013027,-0.01953 0.0027,-0.01074 0.00824,-0.01953 0.012329,-0.01953 0.00408,0 0.00525,-0.0035 0.0026,-0.0078 -0.00266,-0.0043 -0.00111,-0.0078 0.00345,-0.0078 0.00455,0 0.00827,-0.0047 0.00827,-0.01052 0,-0.0058 0.00703,-0.01863 0.015625,-0.02854 0.00859,-0.0099 0.015625,-0.02275 0.015625,-0.02854 0,-0.0058 0.00372,-0.01052 0.00827,-0.01052 0.00455,0 0.0061,-0.0035 0.00345,-0.0078 -0.00266,-0.0043 -0.00149,-0.0078 0.0026,-0.0078 0.00408,0 0.00963,-0.0088 0.012329,-0.01953 0.0027,-0.01074 0.00856,-0.01953 0.013027,-0.01953 0.00447,0 0.00595,-0.0035 0.0033,-0.0078 -0.00266,-0.0043 -0.00111,-0.0078 0.00345,-0.0078 0.00455,0 0.00827,-0.0047 0.00827,-0.01052 0,-0.0058 0.00703,-0.01863 0.015625,-0.02854 0.00859,-0.0099 0.015625,-0.02275 0.015625,-0.02854 0,-0.0058 0.00372,-0.010523 0.00827,-0.010523 0.00455,0 0.0061,-0.00352 0.00345,-0.00781 -0.00266,-0.0043 -0.00149,-0.00781 0.0026,-0.00781 0.00408,0 0.00963,-0.00879 0.012329,-0.019531 0.0027,-0.010742 0.00856,-0.019531 0.013027,-0.019531 0.00447,0 0.00595,-0.00352 0.0033,-0.00781 -0.00266,-0.0043 -0.00111,-0.00781 0.00345,-0.00781 0.00455,0 0.00827,-0.00527 0.00827,-0.011719 0,-0.00645 0.00311,-0.011719 0.0069,-0.011719 0.0038,0 0.00859,-0.00647 0.010662,-0.014382 0.00539,-0.020601 0.530756,-0.924278 0.534923,-0.920111 0.0019,0.00191 -7.64e-4,0.011678 -0.0059,0.021714 -0.0052,0.010036 -0.006,0.014732 -0.0019,0.010435 0.0041,-0.0043 0.05077,-0.083398 0.103694,-0.1757812 0.301782,-0.5268271 1.208344,-2.0820997 1.554471,-2.666808 0.02252,-0.038033 0.04386,-0.066158 0.04743,-0.0625 0.01826,0.018709 1.0504,1.7870157 1.691113,2.8972767 0.153739,0.2664063 0.282775,0.4878906 0.286747,0.4921875 0.0045,0.00486 0.0051,0.00191 0.0017,-0.00781 -0.0037,-0.010532 -0.0029,-0.013079 0.0024,-0.00781 0.01244,0.012258 0.244372,0.4158237 0.244372,0.4252078 0,0.00461 0.0037,0.00839 0.0083,0.00839 0.0046,0 0.0061,0.00352 0.0034,0.00781 -0.0027,0.0043 -0.0011,0.00781 0.0034,0.00781 0.0046,0 0.0083,0.00527 0.0083,0.011719 0,0.00645 0.0037,0.011719 0.0083,0.011719 0.0046,0 0.0061,0.00352 0.0034,0.00781 -0.0027,0.0043 -0.0015,0.00781 0.0026,0.00781 0.0041,0 0.0096,0.00879 0.01233,0.019531 0.0027,0.010742 0.0086,0.019531 0.01303,0.019531 0.0045,0 0.006,0.00352 0.0033,0.00781 -0.0027,0.0043 -0.0011,0.0078 0.0034,0.0078 0.0046,0 0.0083,0.0047 0.0083,0.01052 0,0.0058 0.007,0.01863 0.01563,0.02854 0.0086,0.0099 0.01563,0.02275 0.01563,0.02854 0,0.0058 0.0037,0.01052 0.0083,0.01052 0.0046,0 0.0061,0.0035 0.0034,0.0078 -0.0027,0.0043 -0.0015,0.0078 0.0026,0.0078 0.0041,0 0.0096,0.0088 0.01233,0.01953 0.0027,0.01074 0.0086,0.01953 0.01303,0.01953 0.0045,0 0.006,0.0035 0.0033,0.0078 -0.0027,0.0043 -0.0011,0.0078 0.0034,0.0078 0.0046,0 0.0083,0.0053 0.0083,0.01172 0,0.0064 0.0037,0.01172 0.0083,0.01172 0.0046,0 0.0061,0.0035 0.0034,0.0078 -0.0027,0.0043 -0.0012,0.0078 0.0033,0.0078 0.0045,0 0.01033,0.0088 0.01303,0.01953 0.0027,0.01074 0.0082,0.01953 0.01233,0.01953 0.0041,0 0.0053,0.0035 0.0026,0.0078 -0.0027,0.0043 -0.0011,0.0078 0.0034,0.0078 0.0046,0 0.0083,0.0047 0.0083,0.01052 0,0.0058 0.007,0.01863 0.01563,0.02854 0.0086,0.0099 0.01563,0.02275 0.01563,0.02854 0,0.0058 0.0037,0.01052 0.0083,0.01052 0.0046,0 0.0061,0.0035 0.0034,0.0078 -0.0027,0.0043 -0.0012,0.0078 0.0033,0.0078 0.0045,0 0.01033,0.0088 0.01303,0.01953 0.0027,0.01074 0.0082,0.01953 0.01233,0.01953 0.0041,0 0.0053,0.0035 0.0026,0.0078 -0.0027,0.0043 -0.0011,0.0078 0.0034,0.0078 0.0046,0 0.0083,0.0047 0.0083,0.01052 0,0.0058 0.007,0.01863 0.01563,0.02854 0.0086,0.0099 0.01563,0.02275 0.01563,0.02854 0,0.0058 0.0037,0.01052 0.0083,0.01052 0.0046,0 0.0061,0.0035 0.0034,0.0078 -0.0027,0.0043 -0.0015,0.0078 0.0026,0.0078 0.0041,0 0.0096,0.0088 0.01233,0.01953 0.0027,0.01074 0.0086,0.01953 0.01303,0.01953 0.0045,0 0.006,0.0035 0.0033,0.0078 -0.0027,0.0043 -0.0011,0.0078 0.0034,0.0078 0.0046,0 0.0083,0.0047 0.0083,0.01052 0,0.0058 0.007,0.01863 0.01563,0.02854 0.0086,0.0099 0.01563,0.02275 0.01563,0.02854 0,0.0058 0.0037,0.01052 0.0083,0.01052 0.0046,0 0.0061,0.0035 0.0034,0.0078 -0.0027,0.0043 -0.0011,0.0078 0.0034,0.0078 0.0046,0 0.0083,0.0047 0.0083,0.01052 0,0.0058 0.007,0.01863 0.01563,0.02854 0.0086,0.0099 0.01563,0.02275 0.01563,0.02854 0,0.0058 0.0037,0.01052 0.0083,0.01052 0.0046,0 0.0061,0.0035 0.0034,0.0078 -0.0027,0.0043 -0.0012,0.0078 0.0033,0.0078 0.0045,0 0.01033,0.0088 0.01303,0.01953 0.0027,0.01074 0.0082,0.01953 0.01233,0.01953 0.0041,0 0.0053,0.0035 0.0026,0.0078 -0.0027,0.0043 -0.0011,0.0078 0.0034,0.0078 0.0046,0 0.0083,0.0047 0.0083,0.01052 0,0.0058 0.007,0.01863 0.01563,0.02854 0.0086,0.0099 0.01563,0.02275 0.01563,0.02854 0,0.0058 0.0037,0.01052 0.0083,0.01052 0.0046,0 0.0061,0.0035 0.0034,0.0078 -0.0027,0.0043 -0.0012,0.0078 0.0033,0.0078 0.0045,0 0.01033,0.0088 0.01303,0.01953 0.0027,0.01074 0.0078,0.01953 0.01126,0.01953 0.0035,0 0.01042,0.01231 0.01538,0.02734 0.005,0.01504 0.0122,0.02734 0.01608,0.02734 0.0039,0 0.0093,0.0088 0.01196,0.01953 0.0027,0.01074 0.0082,0.01953 0.01233,0.01953 0.0041,0 0.0053,0.0035 0.0026,0.0078 -0.0027,0.0043 -0.0011,0.0078 0.0034,0.0078 0.0046,0 0.0083,0.0047 0.0083,0.01052 0,0.0058 0.007,0.01863 0.01563,0.02854 0.0086,0.0099 0.01563,0.02275 0.01563,0.02854 0,0.0058 0.0037,0.01052 0.0083,0.01052 0.0046,0 0.0061,0.0035 0.0034,0.0078 -0.0027,0.0043 -0.0012,0.0078 0.0033,0.0078 0.0045,0 0.01033,0.0088 0.01303,0.01953 0.0027,0.01074 0.0078,0.01953 0.01126,0.01953 0.0035,0 0.01042,0.0123 0.01538,0.02734 0.005,0.01504 0.0122,0.02734 0.01608,0.02734 0.0039,0 0.0093,0.0088 0.01196,0.01953 0.0027,0.01074 0.0082,0.01953 0.01233,0.01953 0.0041,0 0.0053,0.0035 0.0026,0.0078 -0.0027,0.0043 -0.0012,0.0078 0.0033,0.0078 0.0045,0 0.01033,0.0088 0.01303,0.01953 0.0027,0.01074 0.0078,0.01953 0.01126,0.01953 0.0035,0 0.01042,0.01231 0.01538,0.02734 0.005,0.01504 0.0122,0.02734 0.01608,0.02734 0.0039,0 0.0093,0.0088 0.01196,0.01953 0.0027,0.01074 0.0082,0.01953 0.01233,0.01953 0.0041,0 0.0053,0.0035 0.0026,0.0078 -0.0027,0.0043 -0.0011,0.0078 0.0034,0.0078 0.0046,0 0.0083,0.0047 0.0083,0.01052 0,0.0058 0.007,0.01863 0.01563,0.02854 0.0086,0.0099 0.01563,0.02221 0.01563,0.02734 0,0.0051 0.007,0.01744 0.01563,0.02734 0.0086,0.0099 0.01563,0.02275 0.01563,0.02854 0,0.0058 0.0032,0.01052 0.0072,0.01052 0.004,0 0.01127,0.0123 0.01623,0.02734 0.005,0.01504 0.0122,0.02734 0.01608,0.02734 0.0039,0 0.0093,0.0088 0.01196,0.01953 0.0027,0.01074 0.0082,0.01953 0.01233,0.01953 0.0041,0 0.0053,0.0035 0.0026,0.0078 -0.0027,0.0043 -0.0012,0.0078 0.0033,0.0078 0.0045,0 0.01033,0.0088 0.01303,0.01953 0.0027,0.01074 0.0078,0.01953 0.01126,0.01953 0.0035,0 0.01042,0.01231 0.01538,0.02734 0.005,0.01504 0.0122,0.02734 0.01608,0.02734 0.0039,0 0.0093,0.0088 0.01196,0.01953 0.0027,0.01074 0.0076,0.01953 0.01092,0.01953 0.0033,0 0.01069,0.01143 0.0164,0.02539 0.0057,0.01396 0.01493,0.03004 0.02048,0.03571 0.0056,0.0057 0.01009,0.01481 0.01009,0.02029 0,0.0055 0.007,0.01807 0.01563,0.02798 0.0086,0.0099 0.01563,0.02275 0.01563,0.02854 0,0.0058 0.0031,0.01052 0.0069,0.01052 0.0038,0 0.01149,0.01143 0.01713,0.02539 0.0056,0.01397 0.01256,0.02715 0.01537,0.0293 0.0059,0.0045 0.0262,0.04094 0.04031,0.07227 0.0053,0.01182 0.012,0.02148 0.01483,0.02148 0.0028,0 0.0098,0.01143 0.01553,0.02539 0.0057,0.01396 0.01493,0.03004 0.02048,0.03571 0.0056,0.0057 0.01009,0.01535 0.01009,0.02148 0,0.0061 0.0031,0.01116 0.0069,0.01116 0.0038,0 0.01149,0.01143 0.01713,0.02539 0.0056,0.01396 0.01256,0.02715 0.01537,0.0293 0.0048,0.0037 0.01624,0.02369 0.04024,0.07031 0.0055,0.01074 0.01449,0.02417 0.0199,0.02984 0.0054,0.0057 0.01199,0.01885 0.01461,0.0293 0.0026,0.01044 0.0076,0.01898 0.01097,0.01898 0.0034,0 0.01014,0.0097 0.01495,0.02148 0.01015,0.02492 0.03355,0.06658 0.04058,0.07227 0.0027,0.0021 0.01537,0.02373 0.02825,0.04797 0.01288,0.02423 0.02912,0.0522 0.03609,0.06215 0.01156,0.01651 0.01269,0.129889 0.01281,1.293831 l 1.4e-4,1.275737 H 11.661582 7.5052056 l 2.454e-4,-0.691407 z m 4.181557,-0.447242 c -0.05264,-0.0014 -0.13877,-0.0014 -0.191407,0 -0.05264,0.0014 -0.0096,0.0025 0.0957,0.0025 0.105274,0 0.14834,-0.0011 0.0957,-0.0025 z m 1.335907,-2.028753 0.002,-2.0189648 -1.003906,0.00381 c -0.552149,0.0021 -1.011296,0.00529 -1.020327,0.0071 l -0.01642,0.00329 -0.0058,1.6778958 c -0.0057,1.664425 -0.002,2.316966 0.0132,2.336059 0.0062,0.0077 0.219294,0.0098 1.018519,0.0098 H 13.02091 Z M 12.246182,9.8631 c -0.179072,-0.00117 -0.474385,-0.00117 -0.65625,-10e-7 -0.181864,0.00117 -0.03535,0.00213 0.325587,0.00213 0.360938,5e-7 0.509736,-9.56e-4 0.330663,-0.00213 z M 10.522941,9.8553 c -0.06123,-0.00132 -0.161426,-0.00132 -0.222656,0 -0.06123,0.00132 -0.01113,0.0024 0.111328,0.0024 0.122461,0 0.172559,-0.00108 0.111328,-0.0024 z m 3.132813,1.56e-5 c -0.04404,-0.00139 -0.116114,-0.00139 -0.160157,0 -0.04404,0.00139 -0.008,0.00253 0.08008,0.00253 0.08809,0 0.124122,-0.00114 0.08008,-0.00253 z m -3.573957,-0.00772 c -0.02027,-0.0016 -0.05542,-0.00162 -0.07813,-3.91e-5 -0.022703,0.00158 -0.00612,0.0029 0.03685,0.00292 0.04297,2.35e-5 0.06154,-0.00127 0.04128,-0.00288 z m -0.1604185,-0.0076 c -0.00967,-0.00186 -0.025488,-0.00186 -0.035156,0 -0.00967,0.00186 -0.00176,0.00339 0.017578,0.00339 0.019336,0 0.027246,-0.00152 0.017578,-0.00339 z m -0.058756,-0.00702 c -0.0026,-0.0026 -0.00933,-0.00287 -0.014974,-6.164e-4 -0.00623,0.00249 -0.00438,0.00435 0.00472,0.00472 0.00824,3.39e-4 0.01285,-0.00151 0.010254,-0.0041 z m 4.3107095,-0.02653 c -0.0067,-0.012891 -0.01388,-0.023437 -0.01603,-0.023437 -0.0021,0 0.0015,0.010547 0.0082,0.023437 0.0067,0.012891 0.01388,0.023437 0.01603,0.023437 0.0021,0 -0.0015,-0.010547 -0.0082,-0.023437 z M 9.8608317,9.767394 c 0.00667,-0.012891 0.010362,-0.023437 0.00821,-0.023437 -0.00215,0 -0.00936,0.010547 -0.016026,0.023437 -0.00667,0.012891 -0.010362,0.023437 -0.00821,0.023437 0.00215,0 0.00936,-0.010547 0.016026,-0.023437 z M 14.138175,9.743957 c -0.0046,-0.00859 -0.01012,-0.015625 -0.01227,-0.015625 -0.0021,0 -1.43e-4,0.00703 0.0045,0.015625 0.0046,0.00859 0.01012,0.015625 0.01227,0.015625 0.0021,0 1.43e-4,-0.00703 -0.0045,-0.015625 z M 9.8959879,9.704894 c 0.0046,-0.00859 0.0066,-0.015625 0.00446,-0.015625 -0.00215,0 -0.00767,0.00703 -0.012269,0.015625 -0.0046,0.00859 -0.0066,0.015625 -0.00446,0.015625 0.00215,0 0.00767,-0.00703 0.012269,-0.015625 z M 14.106925,9.689269 c -0.0046,-0.00859 -0.01012,-0.015625 -0.01227,-0.015625 -0.0021,0 -1.43e-4,0.00703 0.0045,0.015625 0.0046,0.00859 0.01012,0.015625 0.01227,0.015625 0.0021,0 1.43e-4,-0.00703 -0.0045,-0.015625 z M 9.9272379,9.6502065 c 0.0046,-0.00859 0.0066,-0.015625 0.00446,-0.015625 -0.00215,0 -0.00767,0.00703 -0.012269,0.015625 -0.0046,0.00859 -0.0066,0.015625 -0.00446,0.015625 0.00215,0 0.00767,-0.00703 0.012269,-0.015625 z m 4.1484371,-0.015625 c -0.0046,-0.00859 -0.01012,-0.015625 -0.01227,-0.015625 -0.0021,0 -1.43e-4,0.00703 0.0045,0.015625 0.0046,0.00859 0.01012,0.015625 0.01227,0.015625 0.0021,0 1.43e-4,-0.00703 -0.0045,-0.015625 z M 9.9584879,9.595519 c 0.0046,-0.00859 0.0066,-0.015625 0.00446,-0.015625 -0.00215,0 -0.00767,0.00703 -0.012269,0.015625 -0.0046,0.00859 -0.0066,0.015625 -0.00446,0.015625 0.00215,0 0.00767,-0.00703 0.012269,-0.015625 z M 14.044425,9.579894 c -0.0046,-0.00859 -0.01012,-0.015625 -0.01227,-0.015625 -0.0021,0 -1.43e-4,0.00703 0.0045,0.015625 0.0046,0.00859 0.01012,0.015625 0.01227,0.015625 0.0021,0 1.43e-4,-0.00703 -0.0045,-0.015625 z M 9.9897379,9.5408315 c 0.0046,-0.00859 0.0066,-0.015625 0.00446,-0.015625 -0.00215,0 -0.00767,0.00703 -0.012269,0.015625 -0.0046,0.00859 -0.0066,0.015625 -0.00446,0.015625 0.00215,0 0.00767,-0.00703 0.012269,-0.015625 z m 4.0234371,-0.015625 c -0.0046,-0.00859 -0.01012,-0.015625 -0.01227,-0.015625 -0.0021,0 -1.43e-4,0.00703 0.0045,0.015625 0.0046,0.00859 0.01012,0.015625 0.01227,0.015625 0.0021,0 1.43e-4,-0.00703 -0.0045,-0.015625 z M 10.020988,9.486144 c 0.0046,-0.00859 0.0066,-0.015625 0.0045,-0.015625 -0.0021,0 -0.0077,0.00703 -0.01227,0.015625 -0.0046,0.00859 -0.0066,0.015625 -0.0045,0.015625 0.0021,0 0.0077,-0.00703 0.01227,-0.015625 z m 0.03125,-0.054687 c 0.0046,-0.00859 0.0066,-0.015625 0.0045,-0.015625 -0.0021,0 -0.0077,0.00703 -0.01227,0.015625 -0.0046,0.00859 -0.0066,0.015625 -0.0045,0.015625 0.0021,0 0.0077,-0.00703 0.01227,-0.015625 z m 0.03125,-0.054687 c 0.0046,-0.00859 0.0066,-0.015625 0.0045,-0.015625 -0.0021,0 -0.0077,0.00703 -0.01227,0.015625 -0.0046,0.00859 -0.0066,0.015625 -0.0045,0.015625 0.0021,0 0.0077,-0.00703 0.01227,-0.015625 z m 0.02734,-0.046875 c 0.0067,-0.012891 0.01036,-0.023437 0.0082,-0.023437 -0.0021,0 -0.0094,0.010547 -0.01603,0.023437 -0.0067,0.012891 -0.01036,0.023437 -0.0082,0.023437 0.0021,0 0.0094,-0.010547 0.01603,-0.023437 z m 0.02734,-0.046875 c 0.0046,-0.00859 0.0066,-0.015625 0.0045,-0.015625 -0.0021,0 -0.0077,0.00703 -0.01227,0.015625 -0.0046,0.00859 -0.0066,0.015625 -0.0045,0.015625 0.0021,0 0.0077,-0.00703 0.01227,-0.015625 z m 0.03125,-0.054687 c 0.0046,-0.00859 0.0066,-0.015625 0.0045,-0.015625 -0.0021,0 -0.0077,0.00703 -0.01227,0.015625 -0.0046,0.00859 -0.0066,0.015625 -0.0045,0.015625 0.0021,0 0.0077,-0.00703 0.01227,-0.015625 z m 0.02734,-0.046875 c 0.0067,-0.012891 0.01036,-0.023437 0.0082,-0.023437 -0.0021,0 -0.0094,0.010547 -0.01603,0.023437 -0.0067,0.012891 -0.01036,0.023437 -0.0082,0.023437 0.0021,0 0.0094,-0.010547 0.01603,-0.023437 z m 0.02734,-0.046875 c 0.0046,-0.00859 0.0066,-0.015625 0.0045,-0.015625 -0.0021,0 -0.0077,0.00703 -0.01227,0.015625 -0.0046,0.00859 -0.0066,0.015625 -0.0045,0.015625 0.0021,0 0.0077,-0.00703 0.01227,-0.015625 z m 0.03125,-0.054687 c 0.0046,-0.00859 0.0066,-0.015625 0.0045,-0.015625 -0.0021,0 -0.0077,0.00703 -0.01227,0.015625 -0.0046,0.00859 -0.0066,0.015625 -0.0045,0.015625 0.0021,0 0.0077,-0.00703 0.01227,-0.015625 z m 0.03125,-0.054687 c 0.0046,-0.00859 0.0066,-0.015625 0.0045,-0.015625 -0.0021,0 -0.0077,0.00703 -0.01227,0.015625 -0.0046,0.00859 -0.0066,0.015625 -0.0045,0.015625 0.0021,0 0.0077,-0.00703 0.01227,-0.015625 z"
     id="path4552"
     inkscape:connector-curvature="0" />
  <path
     style="fill:#ffd400;fill-opacity:1;stroke-width:0.0078125"
     d="M 7.5053629,14.483472 V 13.7933 L 8.6310414,11.848706 C 9.2501646,10.77918 9.7629325,9.8970815 9.7705257,9.8884878 c 0.00759,-0.00859 0.025612,-0.037478 0.040041,-0.064187 0.014429,-0.026709 0.028289,-0.045238 0.0308,-0.041175 0.00251,0.00406 0.011061,-0.00361 0.018999,-0.017048 0.00794,-0.013439 0.010412,-0.021949 0.0055,-0.018911 -0.011283,0.00697 -0.011239,0.00258 2.305e-4,-0.022597 0.00595,-0.01305 0.011142,-0.016926 0.014785,-0.011031 0.00376,0.00608 0.00874,0.00325 0.015049,-0.00853 0.0062,-0.011584 0.00649,-0.015804 8.398e-4,-0.012313 -0.010803,0.00668 -0.010935,-7.03e-5 -3.875e-4,-0.019782 0.00451,-0.00843 0.011367,-0.013375 0.015233,-0.010986 0.00387,0.00239 0.011071,-0.00321 0.016012,-0.012443 0.00623,-0.011632 0.00635,-0.015156 3.922e-4,-0.011477 -0.010803,0.00668 -0.010935,-7.03e-5 -3.875e-4,-0.019782 0.00451,-0.00843 0.011367,-0.013375 0.015233,-0.010986 0.00387,0.00239 0.011071,-0.00321 0.016012,-0.012443 0.00623,-0.011632 0.00635,-0.015156 3.922e-4,-0.011477 -0.010803,0.00668 -0.010935,-7.03e-5 -3.875e-4,-0.019782 0.00451,-0.00843 0.011367,-0.013375 0.015233,-0.010986 0.00387,0.00239 0.011071,-0.00321 0.016012,-0.012443 0.00623,-0.011632 0.00635,-0.015156 3.922e-4,-0.011477 -0.010803,0.00668 -0.010935,-7.03e-5 -3.875e-4,-0.019782 0.00451,-0.00843 0.011368,-0.013375 0.015233,-0.010986 0.0039,0.00239 0.01107,-0.00321 0.01601,-0.012443 0.0062,-0.011632 0.0063,-0.015156 3.92e-4,-0.011477 -0.0047,0.00292 -0.0085,0.00247 -0.0083,-0.00101 4.18e-4,-0.010644 0.02054,-0.033704 0.02528,-0.028967 0.0025,0.00245 0.0086,-0.0033 0.01368,-0.012783 0.0062,-0.011606 0.0064,-0.015502 6.33e-4,-0.011927 -0.0047,0.00292 -0.0085,0.00247 -0.0083,-0.00101 3.7e-4,-0.0094 0.02315,-0.03787 0.02344,-0.029298 1.37e-4,0.00404 0.0052,8.585e-4 0.01118,-0.00708 0.006,-0.00794 0.0089,-0.020242 0.0063,-0.027344 -0.0025,-0.0071 -0.0017,-0.010247 0.0019,-0.00699 0.0092,0.00837 0.03464,-0.033012 0.02913,-0.047383 -0.0028,-0.00723 -0.0013,-0.00987 0.0038,-0.00674 0.01007,0.00622 0.02047,-0.014225 0.02439,-0.047963 6.54e-4,-0.00562 0.0045,-0.00816 0.0086,-0.00564 0.0097,0.00599 0.02285,-0.01982 0.0178,-0.034914 -0.0022,-0.00645 -0.0011,-0.00905 0.0024,-0.0058 0.009,0.00844 0.03443,-0.033114 0.02895,-0.047383 -0.003,-0.00777 -0.0014,-0.00993 0.0046,-0.00623 0.005,0.00311 0.0096,0.00193 0.01012,-0.00262 0.0033,-0.027611 0.01536,-0.055629 0.0222,-0.051401 0.0062,0.0038 0.01744,-0.014643 0.01903,-0.031092 4.15e-4,-0.0043 0.0088,-0.015851 0.01862,-0.025676 0.0098,-0.00982 0.01577,-0.021251 0.01321,-0.025391 -0.0026,-0.00414 -3.43e-4,-0.00753 0.0049,-0.00753 0.0053,0 0.0073,-0.00229 0.0045,-0.00509 -0.0028,-0.0028 -3.81e-4,-0.00895 0.0054,-0.013672 0.0058,-0.00472 0.129247,-0.2142491 0.274431,-0.4656162 0.46974,-0.8132897 0.996021,-1.7158325 1.314273,-2.2539063 0.05591,-0.094531 0.104759,-0.1711725 0.108548,-0.1703138 0.01262,0.00286 0.711481,1.1963389 1.620311,2.7670774 0.205558,0.3552685 0.269797,0.4605001 0.274227,0.4492187 0.0055,-0.014078 0.0059,-0.014038 0.0076,8.927e-4 9.79e-4,0.00859 0.0015,0.020741 0.0012,0.026995 -9.01e-4,0.016252 0.07777,0.1487939 0.08549,0.1440249 0.0067,-0.00415 0.0072,-0.00277 0.01029,0.026767 0.0018,0.017222 0.01958,0.043449 0.01958,0.028845 0,-0.00847 0.02284,0.020766 0.02319,0.029689 1.37e-4,0.00348 -0.0036,0.00393 -0.0083,0.00101 -0.0058,-0.00358 -0.0056,3.211e-4 6.33e-4,0.011927 0.0051,0.00948 0.01123,0.015233 0.01368,0.012783 0.0047,-0.00474 0.02486,0.018323 0.02528,0.028967 1.37e-4,0.00348 -0.0036,0.00393 -0.0083,0.00101 -0.006,-0.00368 -0.0058,-1.555e-4 3.92e-4,0.011477 0.0049,0.00923 0.01215,0.014832 0.01601,0.012443 0.0039,-0.00239 0.01072,0.00255 0.01523,0.010986 0.01049,0.019599 0.01043,0.026465 -1.84e-4,0.019907 -0.0046,-0.00286 -0.0039,0.00196 0.0016,0.010752 0.0055,0.00877 0.01259,0.014308 0.01581,0.012317 0.0032,-0.00199 0.0095,0.00328 0.01406,0.01171 0.01049,0.019599 0.01043,0.026465 -1.84e-4,0.019907 -0.0046,-0.00286 -0.0039,0.00196 0.0016,0.010752 0.0055,0.00877 0.01259,0.014308 0.01581,0.012317 0.0032,-0.00199 0.0095,0.00328 0.01406,0.01171 0.01064,0.019889 0.0104,0.026448 -7.33e-4,0.019569 -0.0049,-0.00304 -0.0024,0.00547 0.0055,0.018911 0.0079,0.013439 0.01664,0.020862 0.01934,0.016495 0.0027,-0.00437 0.01123,0.00608 0.01895,0.02321 0.0077,0.017132 0.02001,0.037553 0.0273,0.045379 0.0073,0.00783 0.322088,0.5467698 0.699547,1.1976518 0.377459,0.650882 0.731263,1.260766 0.786231,1.355297 l 0.09994,0.171875 3.28e-4,1.279297 3.28e-4,1.279297 H 11.661663 7.5053629 Z M 13.020988,12.001769 V 9.986144 l -0.951172,4.69e-5 c -0.523144,2.35e-5 -0.979681,0.00227 -1.014525,0.00498 l -0.06335,0.00493 -0.0053,0.2040051 c -0.0072,0.280755 -0.0078,3.621545 -6.51e-4,3.725082 0.0053,0.07659 0.0072,0.08385 0.02232,0.08683 0.0091,0.0018 0.46566,0.0037 1.014586,0.0043 l 0.998047,0.0011 z M 12.101604,9.8631057 c -0.09961,-0.00124 -0.264841,-0.00124 -0.367187,-2.9e-6 -0.102347,0.00123 -0.02085,0.00225 0.181102,0.00225 0.201953,1.6e-6 0.285691,-0.00101 0.186085,-0.00224 z m -1.688038,-0.00768 c -0.01826,-0.00164 -0.04814,-0.00164 -0.06641,0 -0.01826,0.00164 -0.0033,0.00299 0.0332,0.00299 0.03652,0 0.05147,-0.00135 0.0332,-0.00299 z m -0.367187,-0.00761 c -0.0097,-0.00186 -0.02549,-0.00186 -0.03516,0 -0.0097,0.00186 -0.0018,0.00339 0.01758,0.00339 0.01934,0 0.02725,-0.00152 0.01758,-0.00339 z M 9.9094971,9.840799 c -0.0026,-0.0026 -0.00933,-0.00287 -0.014974,-6.164e-4 -0.00623,0.00249 -0.00438,0.00435 0.00472,0.00472 0.00824,3.39e-4 0.01285,-0.00151 0.010254,-0.0041 z"
     id="path4554"
     inkscape:connector-curvature="0" />
  <path
     style="fill:#ffd400;fill-opacity:1;stroke-width:0.00390625"
     d="m 13.015087,13.004393 c 0,-0.393164 4.58e-4,-0.553425 0.001,-0.356135 5.6e-4,0.197289 5.59e-4,0.518969 0,0.714844 -5.6e-4,0.195874 -0.001,0.03446 -0.001,-0.358709 z"
     id="path4556"
     inkscape:connector-curvature="0" />
  <path
     style="fill:#ffd400;fill-opacity:1;stroke-width:0.00390625"
     d="m 11.064045,14.011232 c -0.03325,-6.56e-4 -0.06217,-0.0029 -0.06426,-0.005 -0.0025,-0.0025 0.349187,-0.0038 0.998935,-0.0038 h 1.002735 l 3e-6,-0.791992 c 3e-6,-0.822087 0.003,-1.304249 0.0082,-1.298967 0.0025,0.0026 0.005,1.231015 0.0039,1.898576 l -3.52e-4,0.204102 -0.944336,-8.67e-4 c -0.519384,-4.77e-4 -0.971542,-0.0014 -1.004794,-0.0021 z"
     id="path4558"
     inkscape:connector-curvature="0" />
  <path
     style="fill:#ffd400;fill-opacity:1;stroke-width:0.00390625"
     d="M 10.384269,12.285627 V 9.6430329 l 1.854094,9.927e-4 1.854095,9.926e-4 0.03456,0.060547 c 0.01901,0.033301 0.04907,0.086679 0.0668,0.1186181 0.01773,0.031939 0.0364,0.062568 0.04148,0.068065 0.0051,0.0055 0.0095,0.012077 0.0099,0.014622 3.73e-4,0.00255 0.0037,0.00765 0.0074,0.011351 0.0037,0.0037 0.0059,0.0081 0.0048,0.00979 -10e-4,0.00169 0.0015,0.00618 0.0057,0.00997 0.0042,0.0038 0.0067,0.00843 0.0055,0.010288 -0.0012,0.00186 -3.87e-4,0.00338 0.0017,0.00338 0.0021,0 0.0078,0.00835 0.01272,0.018555 0.0049,0.010205 0.01122,0.020878 0.01402,0.023717 0.0028,0.00284 0.0051,0.00767 0.0051,0.010742 0,0.0031 0.0016,0.0056 0.0037,0.0056 0.002,0 0.0059,0.0062 0.0086,0.01367 0.0027,0.0075 0.0059,0.01368 0.0071,0.01369 0.0012,8e-6 0.0074,0.01011 0.01386,0.02246 0.0064,0.01235 0.01269,0.02333 0.01387,0.0244 0.0012,0.0011 0.103013,0.175977 0.226288,0.388672 0.228795,0.394759 0.347922,0.600137 0.568713,0.980469 l 0.124721,0.214844 0.002,1.629883 0.002,1.629882 h -2.444336 -2.444336 z m 2.634801,1.15529 c 0.0016,-0.317432 0.0018,-0.597022 4.5e-4,-0.621312 -0.0014,-0.02429 -0.0025,-0.671832 -0.0025,-1.438983 l 3.2e-5,-1.3948187 -0.997073,0.00247 c -0.54839,0.00136 -1.004338,0.00351 -1.013217,0.00478 l -0.01614,0.00231 -0.0034,0.1900627 c -0.0019,0.104535 -0.0034,0.986352 -0.0034,1.959594 2.7e-5,1.788076 4.75e-4,1.849716 0.01351,1.862764 0.006,0.006 0.319133,0.0083 1.262345,0.0094 l 0.756355,8.68e-4 z m -1.351598,0.569353 c -0.593819,-0.0018 -0.623478,-0.0022 -0.376953,-0.0049 0.147168,-0.0016 0.592334,-0.0029 0.989258,-0.0029 l 0.72168,-3e-6 10e-7,-0.540039 c 1e-6,-0.297021 0.0013,-0.747461 0.0029,-1.000977 l 0.0029,-0.460937 0.0024,0.255859 c 0.0013,0.140723 0.0026,0.593799 0.0029,1.006836 l 5.64e-4,0.750977 -0.350586,-9.59e-4 c -0.192822,-5.28e-4 -0.640625,-0.0018 -0.995117,-0.0029 z m 0.344456,-4.1474758 c -0.05332,-6.142e-4 -0.139456,-6.136e-4 -0.191407,1.4e-6 -0.05195,6.15e-4 -0.0083,0.00112 0.09695,0.00112 0.105274,-7e-7 0.147779,-5.039e-4 0.09446,-0.00112 z m 2.159581,-0.061656 c -0.0058,-0.00993 -0.01146,-0.017182 -0.01254,-0.016108 -0.0011,0.00107 0.0028,0.010081 0.0086,0.020014 0.0058,0.00993 0.01146,0.017182 0.01254,0.016108 0.0011,-0.00107 -0.0028,-0.010081 -0.0086,-0.020014 z m -0.03507,-0.062587 c -0.0037,-0.00562 -0.0076,-0.00935 -0.0087,-0.00827 -0.0011,0.00107 0.0011,0.00655 0.0047,0.012179 0.0037,0.00562 0.0076,0.00935 0.0087,0.00827 0.0011,-0.00107 -0.0011,-0.00656 -0.0047,-0.01218 z m -0.03125,-0.054687 c -0.0037,-0.00562 -0.0076,-0.00935 -0.0087,-0.00827 -0.0011,0.00107 0.0011,0.00655 0.0047,0.012179 0.0037,0.00562 0.0076,0.00935 0.0087,0.00827 0.0011,-0.00107 -0.0011,-0.00656 -0.0047,-0.01218 z"
     id="path4560"
     inkscape:connector-curvature="0" />
  <path
     style="fill:#ffd400;fill-opacity:1;stroke-width:0.00390625"
     d="M 10.384269,12.285643 V 9.6430651 h 1.853288 1.853288 l 0.02111,0.036133 c 0.01161,0.019873 0.0418,0.073047 0.06709,0.1181641 0.02529,0.045117 0.04907,0.084772 0.05285,0.088123 0.0038,0.00335 0.0128,0.016778 0.02005,0.02984 0.0073,0.013061 0.08514,0.1474298 0.173078,0.2985958 0.08794,0.151167 0.314258,0.540964 0.502921,0.866216 l 0.343023,0.591368 9.86e-4,1.628358 9.86e-4,1.628359 h -2.444336 -2.444336 z m 2.633899,1.270508 c 0.0013,-0.254053 0.0013,-1.161353 -4e-6,-2.016223 l -0.0023,-1.5543091 -0.988626,0.00291 c -0.543744,0.0016 -0.999172,0.00407 -1.012063,0.00548 l -0.02344,0.00257 -0.0029,0.1699221 c -0.0016,0.09346 -0.0024,0.989941 -0.0018,1.992187 8.79e-4,1.477886 0.002,1.825104 0.0061,1.837285 l 0.0051,0.01502 0.01827,-0.0024 c 0.01005,-0.0013 0.460798,-0.0034 1.001667,-0.0047 l 0.983399,-0.0024 5.54e-4,-0.68022 c 3.04e-4,-0.374122 0.0017,-0.821725 0.0031,-0.994674 0.0026,-0.31236 0.0026,-0.313088 0.0037,-0.109375 5.88e-4,0.112793 0.0017,0.208594 0.0026,0.21289 0.0019,0.0099 0.0021,0.08252 0.0019,0.907708 l -1.12e-4,0.67724 -0.971679,-0.0017 c -0.534424,-9.54e-4 -0.825782,-7.16e-4 -0.647461,5.29e-4 0.17832,0.0012 0.616173,0.0027 0.973005,0.0032 l 0.648788,9.43e-4 z M 11.930167,9.8628757 c -0.0081,-8.427e-4 -0.02124,-8.427e-4 -0.0293,0 -0.0081,8.428e-4 -0.0015,0.00153 0.01465,0.00153 0.01611,0 0.02271,-6.895e-4 0.01465,-0.00153 z m 2.242805,-0.058678 c -0.01094,-0.018189 -0.01136,-0.018724 -0.01135,-0.014323 2e-5,0.00481 0.01489,0.028971 0.01783,0.028971 0.0013,0 -0.0016,-0.00659 -0.0065,-0.014648 z m -0.03635,-0.064093 c -0.0071,-0.010129 -0.0084,-0.00681 -0.002,0.00511 0.0023,0.00434 0.0051,0.00697 0.0063,0.00586 0.0011,-0.00112 -7.81e-4,-0.00606 -0.0042,-0.010969 z m -0.03125,-0.054687 c -0.0071,-0.010129 -0.0084,-0.00681 -0.002,0.00511 0.0023,0.00434 0.0051,0.00697 0.0063,0.00586 0.0011,-0.00112 -7.81e-4,-0.00606 -0.0042,-0.010969 z"
     id="path4562"
     inkscape:connector-curvature="0" />
  <path
     style="fill:#ffd400;fill-opacity:1;stroke-width:0.00390625"
     d="M 10.384269,11.108472 V 8.851223 l 0.211348,-0.3648212 c 0.116241,-0.2006516 0.216605,-0.3740496 0.223029,-0.3853289 l 0.01168,-0.020508 h 1.170891 1.170891 l 0.05381,0.092773 c 0.0296,0.051025 0.166291,0.2870117 0.303765,0.5244141 0.352874,0.6093728 0.36102,0.6228166 0.369595,0.609951 0.0024,-0.00354 0.0041,0.00226 0.0052,0.017578 0.0015,0.019794 0.0057,0.029725 0.03119,0.074009 0.03734,0.064788 0.0488,0.081704 0.05097,0.075196 0.0011,-0.00333 0.0038,-0.00174 0.0078,0.0046 0.01817,0.028839 0.106828,0.1810615 0.166027,0.2850764 0.0373,0.065527 0.0701,0.1208985 0.0729,0.1230469 0.0028,0.00215 0.02441,0.037305 0.04803,0.078125 0.03947,0.068225 0.712329,1.2279377 0.906082,1.5616817 l 0.08343,0.143712 9.94e-4,0.847499 9.94e-4,0.847498 h -1.12846 -1.128459 l 0.0023,-0.178711 c 0.0013,-0.09829 9.56e-4,-0.718359 -7.11e-4,-1.377929 -0.0025,-0.979577 -0.0032,-1.080992 -0.0037,-0.553711 -4.72e-4,0.427259 -0.002,0.645508 -0.0046,0.645508 -0.0026,0 -0.0039,-0.178713 -0.0039,-0.528321 -10e-7,-0.290576 -0.0012,-0.719293 -0.0026,-0.952705 l -0.0026,-0.424386 -0.971037,-0.0014 c -0.53407,-7.677e-4 -0.985358,-8.283e-4 -1.002863,-1.343e-4 l -0.03182,0.00126 -0.0027,0.01775 c -0.0015,0.0098 -0.0028,0.76813 -0.0029,1.685262 l -2.17e-4,1.667512 h -0.30221 -0.30221 z m 2.632813,-0.81111 V 9.9868151 l -0.44043,9.595e-4 -0.44043,9.596e-4 0.438477,0.00101 0.438476,0.00101 v 0.3085768 c 0,0.169717 8.79e-4,0.308577 0.002,0.308577 0.0011,0 0.002,-0.139746 0.002,-0.310547 z m 1.154296,-0.4941407 c -0.0033,-0.00645 -0.0069,-0.011719 -0.008,-0.011719 -0.0011,0 7.74e-4,0.00527 0.0041,0.011719 0.0033,0.00645 0.0069,0.011719 0.008,0.011719 0.0011,0 -7.74e-4,-0.00527 -0.0041,-0.011719 z m -0.03662,-0.063542 c -0.0039,-0.00383 -0.0043,-0.00338 -0.0022,0.00219 0.0015,0.00385 0.0037,0.00602 0.0049,0.00482 0.0012,-0.0012 2e-6,-0.00435 -0.0027,-0.007 z m -0.03125,-0.054687 c -0.0039,-0.00383 -0.0043,-0.00338 -0.0022,0.00219 0.0015,0.00385 0.0037,0.00602 0.0049,0.00482 0.0012,-0.0012 2e-6,-0.00435 -0.0027,-0.007 z m -0.02956,-0.055816 c -0.0037,-0.00562 -0.0077,-0.00925 -0.0089,-0.00806 -0.0012,0.00119 8.46e-4,0.00677 0.0045,0.012397 0.0037,0.00562 0.0077,0.00925 0.0089,0.00806 0.0012,-0.00119 -8.46e-4,-0.00677 -0.0045,-0.012397 z m -0.02743,-0.048363 c -0.0057,-0.011016 -0.0138,-0.019105 -0.0138,-0.013776 0,0.00482 0.0134,0.025247 0.01657,0.025247 0.0017,0 4.95e-4,-0.00516 -0.0028,-0.011471 z m -0.02553,-0.04224 c -2.7e-5,-0.00549 -0.01602,-0.029209 -0.01822,-0.027013 -0.0012,0.0012 0.0017,0.00843 0.0064,0.016065 0.0084,0.013601 0.01186,0.016797 0.01183,0.010948 z"
     id="path4564"
     inkscape:connector-curvature="0" />
  <path
     style="fill:#ffd400;fill-opacity:1;stroke-width:0.00390625"
     d="M 10.384269,10.483162 V 8.8506033 l 0.212242,-0.3664644 c 0.26428,-0.4563152 0.54962,-0.947125 0.856255,-1.4728299 l 0.105331,-0.1805843 0.451172,-3.78e-5 0.451172,-3.79e-5 0.08577,0.147419 c 0.379421,0.6521006 0.701068,1.2056677 0.998077,1.7177315 0.191907,0.3308593 0.351303,0.6035141 0.354214,0.6058993 0.0029,0.00239 0.0053,0.01141 0.0053,0.020055 0,0.010599 0.0051,0.025726 0.0156,0.046444 0.02493,0.049124 0.0601,0.1049445 0.06611,0.1049445 0.0075,0 0.0279,0.033847 0.1731,0.2871094 0.03634,0.063379 0.06926,0.11875 0.07315,0.1230469 0.0039,0.0043 0.09581,0.1607424 0.204245,0.3476564 0.108438,0.186914 0.340671,0.587242 0.516074,0.889618 l 0.318915,0.549776 v 0.222685 0.222686 H 14.144043 13.01709 l -9.56e-4,-0.575195 c -6.81e-4,-0.409952 -0.0012,-0.472795 -0.002,-0.21875 -5.63e-4,0.197144 -0.0025,0.356445 -0.0044,0.356445 -0.0019,0 -0.0041,-0.371232 -0.0051,-0.839742 -9.39e-4,-0.461858 -0.0025,-0.8405702 -0.0035,-0.8415827 -0.0033,-0.00333 -2.002839,-0.0043 -2.006172,-9.669e-4 -0.0018,0.00179 -0.0037,0.4794756 -0.0043,1.0615236 l -0.0011,1.058268 h -0.302659 -0.302658 z m 2.632813,-0.189706 V 9.9868151 l -0.209961,9.416e-4 -0.209961,9.416e-4 0.208007,0.00105 0.208008,0.00105 v 0.3046537 c 0,0.167559 8.79e-4,0.304653 0.002,0.304653 0.0011,0 0.002,-0.137988 0.002,-0.30664 z m 1.152343,-0.4941409 c -0.0023,-0.0043 -0.0051,-0.00781 -0.0061,-0.00781 -0.0011,0 -7.1e-5,0.00352 0.0022,0.00781 0.0023,0.0043 0.0051,0.00781 0.0061,0.00781 0.0011,0 7.2e-5,-0.00352 -0.0022,-0.00781 z m -0.09442,-0.1675884 c -0.0028,-0.00451 -0.0065,-0.00819 -0.0082,-0.00819 -0.0017,0 -1.41e-4,0.00445 0.0034,0.00989 0.0077,0.011756 0.01216,0.010166 0.0048,-0.00169 z m -0.03282,-0.056905 c -0.0091,-0.013935 -0.01134,-0.00985 -0.0028,0.00513 0.0038,0.00669 0.0075,0.010549 0.0082,0.00858 6.73e-4,-0.00197 -0.0018,-0.00814 -0.0054,-0.013705 z m -0.02519,-0.042108 c -4.8e-5,-0.00269 -0.0036,-0.00928 -0.0079,-0.014648 l -0.0079,-0.00977 0.0067,0.014648 c 0.0071,0.015461 0.0092,0.017765 0.0091,0.00977 z M 13.49755,8.6079462 c 0,-0.00335 -0.372381,-0.6456401 -0.836838,-1.4433967 C 12.524394,6.930406 12.46909,6.8321223 12.473126,6.8311753 c 0.0031,-7.386e-4 0.0073,2.446e-4 0.0093,0.00218 0.0034,0.00344 1.026892,1.7699478 1.026892,1.7724489 0,6.952e-4 -0.0026,0.00228 -0.0059,0.00351 -0.0032,0.00124 -0.0059,6.179e-4 -0.0059,-0.00138 z"
     id="path4566"
     inkscape:connector-curvature="0" />
  <path
     style="fill:#ffd400;fill-opacity:1;stroke-width:0.00390625"
     d="m 14.309278,10.001464 c -0.0185,-0.029153 -0.804801,-1.3857803 -0.804666,-1.3883087 9.1e-5,-0.0017 0.0016,-0.00358 0.0034,-0.00417 0.0018,-5.884e-4 0.179883,0.3041814 0.395801,0.6772663 0.45708,0.7897884 0.419393,0.7239994 0.414738,0.7239994 -0.002,0 -0.0062,-0.004 -0.0093,-0.0088 z"
     id="path4568"
     inkscape:connector-curvature="0" />
  <path
     style="fill:#ffd400;fill-opacity:1;stroke-width:0.00390625"
     d="m 10.198046,9.1507589 c 0.0017,-0.00275 0.01956,-0.03263 0.03965,-0.066406 0.02009,-0.033776 0.03735,-0.061412 0.03835,-0.061412 0.001,0 6.91e-4,0.00396 -6.92e-4,0.00879 -0.002,0.00704 -9.06e-4,0.00646 0.0056,-0.00293 0.0087,-0.012579 0.01056,-0.019538 0.0042,-0.015625 -0.0021,0.00133 -0.0039,6.564e-4 -0.0039,-0.00149 0,-0.00215 0.0019,-0.00507 0.0042,-0.00648 0.0023,-0.00142 0.0032,-0.00518 0.002,-0.00835 -0.0021,-0.00543 0.160031,-0.2862282 0.803567,-1.391877 0.47472,-0.8156094 0.88131,-1.5097588 0.903645,-1.5427467 0.005,-0.0074 0.0083,-0.014282 0.0073,-0.0153 -10e-4,-0.00102 -0.0026,-0.00112 -0.0034,-2.22e-4 -0.0027,0.00283 -0.0916,0.1520407 -0.191785,0.3219401 -0.05321,0.090234 -0.104419,0.175983 -0.113806,0.1905525 -0.0157,0.024361 -0.02611,0.034127 -0.03109,0.02915 -0.0026,-0.00262 0.256022,-0.4511263 0.317766,-0.5510397 0.01913,-0.030951 0.0218,-0.033737 0.02619,-0.027344 0.0046,0.00667 0.112289,0.191954 0.366879,0.631166 0.08751,0.1509672 0.107208,0.187538 0.103284,0.1917392 -0.0039,0.00421 -0.04086,-0.056376 -0.194688,-0.3193603 -0.242469,-0.4145313 -0.26971,-0.4603849 -0.272091,-0.4580031 -0.0011,0.00108 0.01462,0.029788 0.03488,0.0638 0.03534,0.05932 0.333311,0.568492 0.387053,0.6614033 0.02262,0.039105 0.02508,0.045224 0.01914,0.047577 -0.0059,0.00235 -0.0058,0.00274 0.0012,0.00297 0.0086,2.914e-4 0.03471,0.044861 0.822577,1.401487 l 0.34303,0.5906655 0.0011,0.1661716 0.0011,0.1661717 -1.712108,-1.2e-6 c -1.38914,-10e-7 -1.711519,-9.434e-4 -1.708985,-0.005 z m 0.02058,-0.01649 c 0,-0.00215 -0.0017,-0.00127 -0.0038,0.00195 -0.0021,0.00322 -0.0038,0.00762 -0.0038,0.00977 0,0.00215 0.0017,0.00127 0.0038,-0.00195 0.0021,-0.00322 0.0038,-0.00762 0.0038,-0.00977 z m 0.038,-0.066933 c -0.0012,-0.00118 -0.0049,0.0032 -0.0083,0.00974 -0.0088,0.017086 -0.0075,0.020378 0.0022,0.00528 0.0045,-0.00707 0.0073,-0.013828 0.0061,-0.015011 z m 0.05321,-0.096307 c -0.0012,-0.00193 -0.0039,-0.00174 -0.006,4.497e-4 -0.0021,0.00215 -0.0026,0.006 -0.001,0.00857 0.0022,0.00354 0.0036,0.00344 0.006,-4.497e-4 0.0017,-0.00281 0.0022,-0.00667 0.001,-0.00857 z"
     id="path4570"
     inkscape:connector-curvature="0" />
  <path
     style="fill:#ffd400;fill-opacity:1;stroke-width:0.00390625"
     d="m 10.178743,9.1434529 c 0.0044,-0.0072 0.304645,-0.5254924 0.667217,-1.1517619 0.362572,-0.6262696 0.692681,-1.1964291 0.733576,-1.2670213 0.0409,-0.070592 0.07672,-0.1292565 0.07961,-0.1303653 0.01,-0.00383 0.01026,0.0031 8.61e-4,0.021496 -0.0052,0.010158 -0.01006,0.019787 -0.01083,0.021399 -7.66e-4,0.00161 3.05e-4,0.00293 0.0024,0.00293 0.0021,0 0.06234,-0.099756 0.133929,-0.2216797 0.07159,-0.1219239 0.147977,-0.2515625 0.169756,-0.288086 0.04793,-0.08037 0.04988,-0.083984 0.04538,-0.083984 -0.0043,0 -0.01976,0.025452 -0.174599,0.2871093 -0.06611,0.1117188 -0.126779,0.2128638 -0.134813,0.2247668 -0.0138,0.020449 -0.02715,0.034999 -0.02715,0.029598 0,-0.00763 0.271245,-0.4778587 0.317553,-0.5505104 0.0107,-0.016786 0.02075,-0.029091 0.02233,-0.027344 0.0057,0.00633 0.417836,0.7175279 0.44529,0.7684539 0.01123,0.020826 0.01951,0.038767 0.01841,0.03987 -0.0033,0.00329 -0.05241,-0.078627 -0.26846,-0.4477257 -0.137387,-0.2347172 -0.179876,-0.3058905 -0.186555,-0.3125 -0.0053,-0.00521 -0.0057,-0.0051 -0.0035,0.001 0.0013,0.00377 0.07164,0.1250629 0.156266,0.2695312 0.30682,0.5237613 0.291571,0.4967692 0.282682,0.5003822 -0.0026,0.00105 -0.0011,0.00204 0.0033,0.00221 0.0062,2.387e-4 0.01995,0.020799 0.06103,0.091129 0.05865,0.1004278 0.321478,0.5520903 0.792729,1.3623047 l 0.310131,0.5332031 0.002,0.1689475 0.002,0.1689473 -1.712363,-2e-6 -1.712364,-2.1e-6 0.0056,-0.00879 c 0.0031,-0.00483 0.02025,-0.033398 0.03813,-0.063477 0.03297,-0.055457 0.04254,-0.069302 0.0378,-0.054687 -0.0022,0.00681 -0.0015,0.00662 0.0053,-0.00141 0.0085,-0.010004 0.01051,-0.018296 0.0034,-0.013903 -0.0024,0.0015 -0.0037,0.00116 -0.0028,-7.46e-4 8.9e-4,-0.00191 0.0049,-0.011044 0.0088,-0.020296 0.0046,-0.010759 0.0091,-0.0161 0.01243,-0.014819 0.0066,0.00254 0.01188,-0.00541 0.006,-0.00905 -0.0029,-0.00178 0.0088,-0.026192 0.03401,-0.070852 0.08351,-0.1482036 0.693091,-1.1973598 1.182789,-2.0357057 0.106977,-0.1831409 0.133451,-0.231147 0.119024,-0.2158354 -0.0054,0.00571 -0.868265,1.4875099 -1.397685,2.4001954 -0.04036,0.069587 -0.06481,0.1079048 -0.06941,0.1087932 -0.0066,0.00128 -0.0066,4.857e-4 8.98e-4,-0.011719 z m 0.03925,-0.00929 c -0.0012,-0.0012 -0.0034,9.653e-4 -0.0049,0.00482 -0.0021,0.00557 -0.0017,0.00602 0.0022,0.00219 0.0027,-0.00265 0.0039,-0.0058 0.0027,-0.007 z m 0.03396,-0.056537 c 0.0033,-0.00645 0.0052,-0.011719 0.0041,-0.011719 -0.0011,0 -0.0047,0.00527 -0.008,0.011719 -0.0033,0.00645 -0.0052,0.011719 -0.0041,0.011719 0.0011,0 0.0047,-0.00527 0.008,-0.011719 z"
     id="path4572"
     inkscape:connector-curvature="0" />
  <path
     style="fill:#ffd400;fill-opacity:1;stroke-width:0.00390625"
     d="m 14.522997,18.98356 v -0.0091 l 0.18457,-0.0026 c 0.101514,-0.0014 0.6104,-0.0026 1.130859,-0.0026 0.625486,-3e-6 0.94629,-0.0013 0.94629,-0.0039 0,-0.0026 0.148289,-0.0043 0.430664,-0.0052 0.236865,-7.16e-4 -0.272022,-5.67e-4 -1.13086,3.31e-4 -1.349435,0.0014 -1.561523,8.77e-4 -1.561523,-0.0039 0,-0.0073 0.368371,-0.01054 1.277013,-0.01132 0.360045,-3.12e-4 0.939393,-0.0017 1.28744,-0.0031 0.495107,-0.002 0.284937,-0.0027 -0.96582,-0.0033 L 14.522997,18.938 v -0.931644 -0.931645 l 1.932096,9.81e-4 1.932097,9.8e-4 0.511263,0.88469 0.511263,0.884689 v 0.0474 0.0474 l -0.01737,0.0024 c -0.0096,0.0013 -0.21302,0.0044 -0.452148,0.0068 -0.249827,0.0025 -0.435333,0.0059 -0.436081,0.0079 -7.59e-4,0.002 -0.13665,0.0035 -0.325196,0.0035 -0.214479,0 -0.323893,0.0013 -0.323893,0.0039 0,0.0026 0.09236,0.0032 0.276367,0.0018 0.820313,-0.0062 1.206144,-0.01 1.240235,-0.01215 l 0.03809,-0.0024 v 0.02003 0.02004 h -2.44336 -2.443359 z"
     id="path4574"
     inkscape:connector-curvature="0" />
  <path
     style="fill:#ffd400;fill-opacity:1;stroke-width:0.00390625"
     d="m 12.623633,18.515178 v -0.477896 l 0.08015,-0.0026 c 0.125122,-0.004 0.276337,-0.01509 0.313403,-0.02291 l 0.02051,-0.0043 v -0.274769 -0.27477 h 2.236328 2.236328 v 0.746094 0.746094 l -1.416992,4.99e-4 c -0.779345,2.74e-4 -1.449512,0.0017 -1.489258,0.0032 -0.03975,0.0015 0.435303,0.003 1.055664,0.0034 0.620362,3.87e-4 1.12793,0.0022 1.12793,0.004 0,0.0046 -0.671524,0.0084 -1.603515,0.0089 -0.44043,2.55e-4 -0.824512,0.0017 -0.853516,0.0032 -0.04359,0.0023 -0.03158,0.0029 0.06934,0.0034 0.119243,6.54e-4 0.12207,8.51e-4 0.12207,0.0085 0,0.0078 -0.0026,0.0078 -0.949219,0.0078 h -0.949218 z"
     id="path4576"
     inkscape:connector-curvature="0" />
  <path
     style="fill:#ffd400;fill-opacity:1;stroke-width:0.00390625"
     d="m 14.451758,18.994629 c 0,-0.0021 -0.375374,-0.003 -0.914063,-0.0022 l -0.914062,0.0013 v -0.47841 -0.478409 l 0.0498,-0.0024 c 0.02739,-0.0013 0.09111,-0.0043 0.141602,-0.0065 0.103103,-0.0046 0.196324,-0.01297 0.212131,-0.01898 l 0.01052,-0.004 v -0.273534 -0.273535 h 2.236328 2.236328 v 0.767579 0.767578 l -1.49707,2.3e-5 c -0.823389,1.2e-5 -1.511572,0.0012 -1.529297,0.0025 -0.01831,0.0014 -0.03223,9.94e-4 -0.03223,-10e-4 z m 0.07548,-0.01803 c 3.8e-4,-4.67e-4 0.114069,-0.0018 0.252644,-0.003 l 0.251953,-0.0022 -0.320682,-8.93e-4 c -0.176374,-4.91e-4 -0.339851,4.26e-4 -0.363281,0.002 -0.03741,0.0026 -0.02955,0.0032 0.0645,0.0049 0.09045,0.0016 0.107422,0.0029 0.10919,0.0078 0.0017,0.0048 0.0024,0.0046 0.0035,-9.76e-4 7.97e-4,-0.0038 0.0018,-0.0072 0.0021,-0.0077 z m 2.457722,-0.01444 c 0.08516,-0.0022 0.05419,-0.0026 -0.113281,-0.0012 -0.126758,0.001 -0.403614,0.0031 -0.615235,0.0046 -0.364931,0.0026 -0.359092,0.0027 0.113281,0.0012 0.273926,-8.4e-4 0.550782,-0.0029 0.615235,-0.0046 z"
     id="path4580"
     inkscape:connector-curvature="0" />
  <path
     style="fill:#ffd400;fill-opacity:1;stroke-width:0.00390625"
     d="m 13.544531,18.994042 -0.920898,-9.85e-4 v -0.478174 -0.478174 l 0.02832,-0.0023 c 0.01558,-0.0013 0.07754,-0.0041 0.137695,-0.0064 0.11785,-0.0044 0.220038,-0.01289 0.237305,-0.01984 l 0.01074,-0.0043 v -0.272964 -0.272964 h 2.236328 2.236328 v 0.767579 0.767578 h -1.517258 c -0.834492,0 -1.5196,4.39e-4 -1.522461,9.76e-4 -0.0029,5.37e-4 -0.419607,5.34e-4 -0.926101,-8e-6 z m 1.132667,-0.02063 c 0.144784,-0.002 0.143498,-0.0021 -0.06724,-0.0025 -0.118164,-2.5e-4 -0.229785,8.57e-4 -0.248047,0.0025 -0.02711,0.0024 -0.01744,0.0031 0.05273,0.004 0.04727,5.87e-4 0.09121,0.0023 0.09766,0.0037 0.0068,0.0015 0.01289,9.17e-4 0.0145,-0.0014 0.0018,-0.0026 0.05473,-0.0048 0.150391,-0.0062 z m 1.611474,-0.0067 c -0.01343,-7.63e-4 -0.0354,-7.63e-4 -0.04883,0 -0.01343,7.63e-4 -0.0024,0.0014 0.02441,0.0014 0.02685,0 0.03784,-6.24e-4 0.02441,-0.0014 z m 0.06648,3.3e-4 c -0.0026,-0.0011 -0.0079,-0.0011 -0.01172,-1.45e-4 -0.0038,9.91e-4 -0.0016,0.0019 0.0048,0.0019 0.0064,7.9e-5 0.0096,-7.31e-4 0.0069,-0.0018 z m 0.03125,0 c -0.0026,-0.0011 -0.0079,-0.0011 -0.01172,-1.45e-4 -0.0038,9.91e-4 -0.0016,0.0019 0.0048,0.0019 0.0064,7.9e-5 0.0096,-7.31e-4 0.0069,-0.0018 z m 0.413988,-0.0043 c -0.03276,-6.53e-4 -0.08638,-6.53e-4 -0.11914,0 -0.03276,6.54e-4 -0.006,0.0012 0.05957,0.0012 0.06553,0 0.09233,-5.34e-4 0.05957,-0.0012 z"
     id="path4582"
     inkscape:connector-curvature="0" />
  <path
     style="fill:#ffd400;fill-opacity:1;stroke-width:0.00390625"
     d="m 11.308363,18.989643 0.0019,-0.0098 0.523961,-10e-4 c 0.288179,-5.53e-4 0.03485,-0.0014 -0.562953,-0.002 l -1.086914,-9.63e-4 v -0.6875 -0.6875 h 0.394531 0.394532 v 0.206721 0.206721 l 0.01074,0.0022 c 0.02972,0.0062 0.117372,0.0143 0.192383,0.01786 0.244792,0.0116 1.290161,0.0144 1.422929,0.0038 0.02529,-0.002 0.103509,-0.0063 0.173828,-0.0096 0.120168,-0.0056 0.191922,-0.0106 0.230391,-0.01607 l 0.0166,-0.0024 9.41e-4,-0.205612 9.41e-4,-0.205611 10e-4,0.204102 c 9.12e-4,0.177809 0.0018,0.204101 0.0069,0.204101 0.0051,0 0.0058,-0.02571 0.0058,-0.203125 v -0.203125 h 1.017578 1.017578 v 0.696621 0.69662 l -0.459961,0.0026 c -0.252979,0.0014 -1.1,0.0026 -1.882271,0.0026 l -1.42231,2e-6 z m 3.256955,-0.01467 c 0.02141,-7.08e-4 -0.0182,-0.0014 -0.08803,-0.0015 -0.12609,-1.99e-4 -0.126387,-1.81e-4 -0.04365,0.0027 0.04581,0.0016 0.08437,0.004 0.08567,0.0053 0.0013,0.0013 0.0034,6.56e-4 0.0047,-0.0014 0.0013,-0.0021 0.01987,-0.0044 0.04128,-0.0051 z"
     id="path4584"
     inkscape:connector-curvature="0" />
  <path
     style="fill:#ffd400;fill-opacity:1;stroke-width:0.00390625"
     d="m 9.5367263,18.987695 v -0.01172 h 0.2317735 c 0.1274754,0 0.5247412,0.0012 0.8828122,0.0026 l 0.651039,0.0026 v 0.0091 0.0091 H 10.419539 9.5367263 Z"
     id="path4586"
     inkscape:connector-curvature="0" />
  <path
     style="fill:#ffd400;fill-opacity:1;stroke-width:0.00390625"
     d="m 4.4826494,18.994561 c -0.00288,-0.0047 -0.015375,0.01745 0.2176306,-0.38525 0.3079908,-0.532297 0.6053629,-1.04129 0.6072538,-1.039399 0.00182,0.0018 -0.1837537,0.323778 -0.6114981,1.060884 -0.1041032,0.179394 -0.1900399,0.32749 -0.1909704,0.329101 -9.306e-4,0.0016 -1.125e-4,0.0029 0.00182,0.0029 0.00193,0 0.00556,-0.0045 0.00806,-0.01 0.0025,-0.0055 0.00596,-0.0091 0.00769,-0.008 0.00173,0.0011 0.1272013,-0.212847 0.2788293,-0.475366 0.151628,-0.262519 0.3703726,-0.641192 0.4860991,-0.841496 l 0.210412,-0.364188 1.3115234,-7e-5 1.3115235,-6.9e-5 v 0.855463 0.855464 l -1.3935547,9.82e-4 -1.3935547,9.82e-4 -0.00124,0.01074 -0.00124,0.01074 H 4.9081024 c -0.2380679,0 -0.4242637,-0.0015 -0.425453,-0.0034 z m 0.021185,-0.0222 c 0,-0.0034 -0.00179,-0.005 -0.00397,-0.0036 -0.00218,0.0013 -0.00296,0.0041 -0.00172,0.0061 0.00335,0.0054 0.00569,0.0044 0.00569,-0.0025 z"
     id="path4588"
     inkscape:connector-curvature="0" />
  <path
     style="fill:#ffd400;fill-opacity:1;stroke-width:0.00390625"
     d="m 4.5809829,18.995057 c -0.053174,-6.14e-4 -0.09668,-0.0019 -0.09668,-0.0029 0,-9.79e-4 0.00386,-0.0097 0.00858,-0.01943 0.00575,-0.01184 0.00959,-0.01606 0.011665,-0.0128 0.00222,0.0035 0.00579,0.0016 0.012671,-0.0069 0.013463,-0.01646 0.015473,-0.01993 0.8802357,-1.516601 l 0.099872,-0.172852 H 6.8091728 8.121022 v 0.855463 0.855464 l -1.3935547,9.87e-4 -1.3935547,9.88e-4 1.3935547,9.71e-4 1.3935547,9.71e-4 v 0.0098 0.0098 H 6.730397 c -1.233507,0 -1.390625,-6.62e-4 -1.390625,-0.0059 0,-0.0032 -0.00176,-0.0059 -0.00391,-0.0059 -0.00215,0 -0.00391,0.0026 -0.00391,0.0059 0,0.0052 -0.038552,0.0058 -0.3271485,0.005 -0.1799316,-4.98e-4 -0.3706543,-0.0014 -0.4238281,-0.002 z m -0.077148,-0.02269 c 0,-0.0034 -0.00176,-0.005 -0.00391,-0.0037 -0.00215,0.0013 -0.00391,0.0041 -0.00391,0.0061 0,0.002 0.00176,0.0037 0.00391,0.0037 0.00215,0 0.00391,-0.0027 0.00391,-0.0061 z"
     id="path4590"
     inkscape:connector-curvature="0" />
  <path
     style="fill:#ffd400;fill-opacity:1;stroke-width:0.00390625"
     d="m 4.6591079,18.995055 c -0.096143,-5.82e-4 -0.1747424,-0.0024 -0.1746663,-0.0039 2.628e-4,-0.0055 0.011304,-0.02241 0.011442,-0.01754 1.987e-4,0.007 0.00795,0.0061 0.00795,-9.77e-4 0,-0.0032 -0.00186,-0.0059 -0.00414,-0.0059 -0.00228,0 -0.0031,-0.0017 -0.00183,-0.0037 0.00127,-0.0021 0.00468,-0.0028 0.00758,-0.0017 0.00994,0.0038 -0.031085,0.07342 0.5872879,-0.996505 0.5373873,-0.929799 1.0349864,-1.789948 1.0444035,-1.805355 0.00425,-0.007 0.00596,-0.01338 0.0039,-0.01465 -0.00202,-0.0012 -0.141275,0.235479 -0.3094619,0.526057 C 5.4993733,17.244831 5.43,17.363018 5.4270417,17.360059 c -0.00106,-0.0011 0.012537,-0.02714 0.030224,-0.05795 0.1214222,-0.211514 1.2415431,-2.146295 1.8020419,-3.112661 0.1804334,-0.311088 0.2171709,-0.372365 0.2171709,-0.362235 0,9.33e-4 -0.3004994,0.520893 -0.6677764,1.155466 -0.3672769,0.634573 -0.6671009,1.154444 -0.6662755,1.15527 8.255e-4,8.25e-4 0.0031,5.09e-4 0.00506,-7.02e-4 0.00196,-0.0012 0.1264424,-0.214902 0.2766271,-0.474868 l 0.273063,-0.472665 0.7119141,-1.33e-4 0.7119141,-1.33e-4 v 1.892573 1.892573 l -1.3837891,9.87e-4 -1.3837891,9.88e-4 1.3837891,9.71e-4 1.3837891,9.71e-4 v 0.0104 0.0104 l -1.3819739,-0.0024 c -0.9921644,-0.0017 -1.3851687,-0.0036 -1.3933,-0.0067 -0.00926,-0.0035 -0.011944,-0.0032 -0.014704,0.0017 -0.00352,0.0063 -0.084884,0.0067 -0.6719357,0.0031 z"
     id="path4592"
     inkscape:connector-curvature="0" />
  <path
     style="fill:#ffd400;fill-opacity:1;stroke-width:0.00552427"
     d="m 7.8391136,18.99781 c -0.00156,-0.0016 -0.7564979,-0.0029 -1.6776299,-0.0029 -1.045142,-4.2e-5 -1.6747855,-0.002 -1.6747855,-0.0053 0,-0.01195 0.012915,-0.03229 0.019019,-0.02995 0.00851,0.0033 0.022526,-0.0205 0.5429408,-0.920434 0.3830774,-0.66244 1.0434033,-1.803719 1.0833217,-1.872367 0.00784,-0.01347 0.011237,-0.02264 0.00756,-0.02037 -0.00368,0.0023 -0.010581,0.01166 -0.015341,0.02087 -0.00476,0.0092 -0.00994,0.01545 -0.011513,0.01388 -0.00157,-0.0016 0.00635,-0.01933 0.017615,-0.03947 0.011261,-0.02014 0.021632,-0.03545 0.023048,-0.03404 0.00142,0.0014 -1.127e-4,0.0076 -0.0034,0.01373 -0.00849,0.01586 -0.0074,0.02193 0.0016,0.009 0.01225,-0.01762 0.5345921,-0.921067 0.541285,-0.936212 0.00336,-0.0076 0.0077,-0.01505 0.00966,-0.01657 0.00196,-0.0015 0.077509,-0.130787 0.1678907,-0.287262 0.090382,-0.156475 0.1673336,-0.286986 0.1710035,-0.290024 0.00943,-0.0078 0.1982289,-0.33521 0.1982289,-0.343754 0,-0.0039 0.00185,-0.007 0.00412,-0.007 0.0053,0 0.056647,-0.08883 0.056647,-0.09801 0,-0.0038 0.00185,-0.0069 0.00412,-0.0069 0.0053,0 0.056647,-0.08883 0.056647,-0.09801 0,-0.0038 0.00201,-0.0069 0.00446,-0.0069 0.00245,0 0.00832,-0.0075 0.013032,-0.01657 0.00471,-0.0091 0.00726,-0.01657 0.00567,-0.01657 -0.0016,0 0.00216,-0.0051 0.00835,-0.01125 0.00619,-0.0062 0.00977,-0.01365 0.00796,-0.01657 -0.00181,-0.0029 -7.209e-4,-0.0053 0.00242,-0.0053 0.00717,0 0.023347,-0.03052 0.018662,-0.03521 -0.0019,-0.0019 -6.262e-4,-0.0035 0.00284,-0.0035 0.00347,0 0.01016,-0.0075 0.014873,-0.01657 0.00471,-0.0091 0.00726,-0.01657 0.00567,-0.01657 -0.0016,0 0.00216,-0.0051 0.00835,-0.01125 0.00619,-0.0062 0.00977,-0.01365 0.00796,-0.01657 -0.00181,-0.0029 -7.209e-4,-0.0053 0.00242,-0.0053 0.00314,0 0.00957,-0.0075 0.014279,-0.01657 0.00471,-0.0091 0.00726,-0.01657 0.00567,-0.01657 -0.0016,0 0.00207,-0.005 0.00814,-0.01105 0.00608,-0.0061 0.011049,-0.01492 0.011049,-0.01966 0,-0.0047 0.071121,-0.131518 0.1580456,-0.281738 L 7.8190417,13.249702 H 9.1939815 10.568921 V 14.205401 15.1611 H 9.0356099 c -1.0208009,0 -1.5321703,0.0018 -1.5298972,0.0055 0.00226,0.0037 0.5193388,0.0055 1.5333114,0.0055 1.3562259,0 1.5298969,9.4e-4 1.5298969,0.0083 0,0.0073 -0.139641,0.0083 -1.2236259,0.0083 H 8.121669 v 0.01395 0.01395 l 0.8189732,-0.0029 c 0.4504354,-0.0016 1.0010671,-0.0042 1.2236258,-0.0058 l 0.404653,-0.0029 v 1.883911 1.883911 h -0.189996 c -0.16379,0 -0.190435,-0.0011 -0.193176,-0.0083 -0.0028,-0.0073 -0.12277,-0.0083 -1.03363,-0.0083 -0.910481,0 -1.03045,9.61e-4 -1.03045,0.0083 0,0.0072 -0.055292,0.0084 -0.4516093,0.0097 l -0.4516092,0.0014 0.4520143,0.0013 c 0.4271023,0.0013 0.4519118,0.0019 0.4501551,0.01102 -0.0017,0.0089 -0.013521,0.0098 -0.1402606,0.01114 -0.076121,8.1e-4 -0.1396813,1.93e-4 -0.1412457,-0.0014 z"
     id="path4594"
     inkscape:connector-curvature="0" />
  <path
     style="fill:#ffd400;fill-opacity:1;stroke-width:0.00552427"
     d="m 6.0569724,18.996354 c -0.9884711,-8.99e-4 -1.5702742,-0.0034 -1.5702742,-0.0067 0,-0.0098 0.012645,-0.03306 0.016642,-0.03059 0.0098,0.0061 -0.00655,0.03367 0.5592571,-0.944693 0.2354576,-0.407139 0.5738492,-0.992075 0.7519813,-1.299858 0.2828744,-0.488759 0.3577825,-0.620588 0.3120458,-0.549161 -0.020384,0.03183 -0.01786,0.0142 0.00341,-0.02384 0.01126,-0.02014 0.021691,-0.03539 0.02318,-0.0339 0.00149,0.0015 -1.829e-4,0.0081 -0.00371,0.0147 -0.00353,0.0066 -0.00544,0.01297 -0.00424,0.01417 0.0012,0.0012 0.1210873,-0.203482 0.2664208,-0.454844 0.5486812,-0.948975 0.6289153,-1.086839 0.6335669,-1.088643 0.00263,-10e-4 0.00337,-0.0041 0.00166,-0.0069 -0.00172,-0.0028 -4.9e-4,-0.0051 0.00273,-0.0051 0.00322,0 0.00585,-0.0037 0.00585,-0.0083 0,-0.0046 0.0029,-0.0083 0.00644,-0.0083 0.00354,0 0.00494,-0.0015 0.00309,-0.0034 -0.00184,-0.0018 0.00139,-0.0084 0.00717,-0.01465 0.00579,-0.0062 0.00922,-0.01341 0.00763,-0.01598 -0.00159,-0.0026 1.497e-4,-0.0047 0.00387,-0.0047 0.00372,0 0.00515,-0.0016 0.00317,-0.0036 -0.00198,-0.002 -4.42e-5,-0.0063 0.0043,-0.0097 0.00434,-0.0033 0.00865,-0.0096 0.00958,-0.0139 9.266e-4,-0.0043 0.00613,-0.01247 0.011554,-0.01816 0.00543,-0.0057 0.00839,-0.01272 0.00658,-0.01565 -0.00181,-0.0029 -2.425e-4,-0.0053 0.00348,-0.0053 0.00372,0 0.00532,-0.0014 0.00355,-0.0032 -0.00177,-0.0018 0.00163,-0.0081 0.00757,-0.01401 0.00593,-0.0059 0.00931,-0.01319 0.0075,-0.01611 -0.00181,-0.0029 -2.425e-4,-0.0053 0.00348,-0.0053 0.00372,0 0.00532,-0.0015 0.00355,-0.0032 -0.00177,-0.0018 0.00163,-0.0081 0.00757,-0.01401 0.00593,-0.0059 0.00931,-0.01319 0.0075,-0.01611 -0.00181,-0.0029 -5.103e-4,-0.0053 0.00289,-0.0053 0.0034,0 0.0048,-0.0022 0.00312,-0.0049 -0.00168,-0.0027 8.158e-4,-0.0064 0.00555,-0.0082 0.00473,-0.0018 0.00706,-0.0058 0.00517,-0.0089 -0.00189,-0.0031 -3.917e-4,-0.0056 0.00333,-0.0056 0.00372,0 0.00526,-0.0015 0.00342,-0.0034 -0.00184,-0.0018 0.00139,-0.0084 0.00717,-0.01465 0.00579,-0.0062 0.00922,-0.01341 0.00763,-0.01598 -0.00159,-0.0026 -1.177e-4,-0.0047 0.00328,-0.0047 0.0034,0 0.00464,-0.0025 0.00276,-0.0055 -0.00188,-0.003 -8.289e-4,-0.0055 0.00233,-0.0055 0.00316,0 0.0073,-0.0062 0.00921,-0.01381 0.00191,-0.0076 0.00568,-0.01381 0.00839,-0.01381 0.00271,0 0.0044,-0.0019 0.00375,-0.0041 -0.0016,-0.0056 0.011496,-0.02868 0.023827,-0.04192 0.00556,-0.006 0.00881,-0.01296 0.00721,-0.01554 -0.00159,-0.0026 1.497e-4,-0.0047 0.00387,-0.0047 0.00372,0 0.00532,-0.0015 0.00355,-0.0032 -0.00177,-0.0018 0.00163,-0.0081 0.00757,-0.01401 0.00593,-0.0059 0.00931,-0.01319 0.0075,-0.01611 -0.00181,-0.0029 -5.104e-4,-0.0053 0.00289,-0.0053 0.0034,0 0.00464,-0.0025 0.00276,-0.0055 -0.00188,-0.003 -7.816e-4,-0.0055 0.00244,-0.0055 0.00322,0 0.00585,-0.0033 0.00585,-0.0074 0,-0.0041 0.00607,-0.0145 0.013496,-0.02313 0.00742,-0.0086 0.012248,-0.01773 0.010722,-0.02019 -0.00153,-0.0025 2.735e-4,-0.0045 0.004,-0.0045 0.00372,0 0.00532,-0.0015 0.00355,-0.0032 -0.00177,-0.0018 0.00163,-0.0081 0.00757,-0.01401 0.00593,-0.0059 0.00931,-0.01319 0.0075,-0.01611 -0.00181,-0.0029 -5.104e-4,-0.0053 0.00289,-0.0053 0.0034,0 0.00464,-0.0025 0.00276,-0.0055 -0.00188,-0.003 -7.816e-4,-0.0055 0.00244,-0.0055 0.00322,0 0.00585,-0.0037 0.00585,-0.0083 0,-0.0046 0.00263,-0.0083 0.00585,-0.0083 0.00322,0 0.00431,-0.0025 0.00244,-0.0055 -0.00188,-0.003 -9.743e-4,-0.0055 0.00201,-0.0055 0.00298,0 0.00829,-0.0087 0.011803,-0.01933 0.00351,-0.01064 0.0084,-0.01933 0.010878,-0.01933 0.00247,0 0.00606,-0.0062 0.00796,-0.01381 0.00191,-0.0076 0.00605,-0.01381 0.00921,-0.01381 0.00316,0 0.00421,-0.0025 0.00233,-0.0055 -0.00188,-0.003 -0.00105,-0.0055 0.00184,-0.0055 0.00289,0 0.00681,-0.0062 0.00872,-0.01381 0.00191,-0.0076 0.00571,-0.01381 0.00846,-0.01381 0.00274,0 0.00786,-0.0087 0.011372,-0.01933 0.00351,-0.01063 0.0084,-0.01933 0.010878,-0.01933 0.00247,0 0.00606,-0.0062 0.00796,-0.01381 0.00191,-0.0076 0.00605,-0.01381 0.00921,-0.01381 0.00316,0 0.00421,-0.0025 0.00233,-0.0055 -0.00188,-0.003 -7.815e-4,-0.0055 0.00244,-0.0055 0.00322,0 0.00585,-0.0036 0.00585,-0.0079 0,-0.0043 0.00354,-0.01144 0.00788,-0.01577 0.00433,-0.0043 0.011542,-0.01632 0.016024,-0.02663 0.00448,-0.01032 0.076533,-0.13684 0.1601144,-0.281162 L 7.8168472,13.2528 9.1928908,13.2514 10.568934,13.25 v 0.966655 0.966655 l -0.125677,0.0016 -0.125677,0.0016 0.125677,0.0013 0.125677,0.0013 v 1.892063 1.892063 h -0.189482 c -0.144221,0 -0.191132,-0.0016 -0.196388,-0.0069 -0.01008,-0.01008 -2.0542552,-0.01015 -2.0604856,-7.1e-5 -0.00321,0.0052 -0.053468,0.0072 -0.2083398,0.0084 l -0.2041148,0.0015 0.2061842,0.0013 c 0.1929928,0.0012 0.2060651,0.0019 0.2043233,0.01098 -0.00218,0.01133 0.229117,0.0104 -2.0636458,0.0083 z m 2.2400922,-3.784133 c -0.032662,-9.77e-4 -0.08611,-9.77e-4 -0.1187719,0 -0.032662,9.76e-4 -0.00594,0.0018 0.059386,0.0018 0.065324,0 0.092048,-7.99e-4 0.059386,-0.0018 z"
     id="path4596"
     inkscape:connector-curvature="0" />
  <path
     style="fill:#ffd400;fill-opacity:1;stroke-width:0.03125"
     d="M 4.5556234,18.870738 C 4.5950511,18.809419 4.9682997,18.168625 5.385065,17.44675 5.8018302,16.724875 6.4407369,15.620969 6.8048576,14.993625 7.1689782,14.366281 7.8088491,13.262375 8.2267931,12.5405 8.6447369,11.818625 9.176155,10.904562 9.4077219,10.50925 9.6392891,10.113937 10.042785,9.4178436 10.304379,8.9623748 c 0.261594,-0.4554687 0.67183,-1.165625 0.911635,-1.578125 0.239806,-0.4125 0.511619,-0.8874957 0.604029,-1.055546 0.09241,-0.1680503 0.178782,-0.2946128 0.191936,-0.28125 0.01315,0.013363 0.111359,0.1789835 0.218233,0.368046 0.106874,0.1890625 0.466342,0.8119676 0.798817,1.3842336 0.332475,0.572266 0.604501,1.0455357 0.604501,1.0517104 0,0.00617 0.128097,0.2270196 0.28466,0.4907663 0.548506,0.9240139 1.139107,1.9449249 1.940616,3.3545399 0.01955,0.03438 0.312349,0.540625 0.650674,1.125 2.070903,3.576987 2.93655,5.078271 2.93655,5.092838 0,0.0091 -0.03867,0.01753 -0.08594,0.01873 -0.07607,0.0019 -0.07876,0.0053 -0.02344,0.02892 0.03482,0.01489 -3.240263,0.02523 -7.395109,0.02335 l -7.4576091,-0.0034 z m 8.4455266,-1.869301 0.0082,-1.007812 H 11.993337 10.97728 v 0.994791 c 0,0.547136 0.0096,1.004361 0.02126,1.016057 0.0117,0.01169 0.465212,0.01755 1.007813,0.01302 l 0.986548,-0.0082 z m 0.0074,-5.007812 V 9.9936248 h -0.995273 -0.995274 l -0.02254,1.8359372 c -0.0124,1.009766 -0.01271,1.909766 -7e-4,2 l 0.02184,0.164063 h 0.995975 0.995974 v -2 z"
     id="path4598"
     inkscape:connector-curvature="0" />
</svg>
