<?xml version="1.0" encoding="UTF-8" standalone="no"?>
<svg
   xmlns:dc="http://purl.org/dc/elements/1.1/"
   xmlns:cc="http://creativecommons.org/ns#"
   xmlns:rdf="http://www.w3.org/1999/02/22-rdf-syntax-ns#"
   xmlns:svg="http://www.w3.org/2000/svg"
   xmlns="http://www.w3.org/2000/svg"
   xmlns:sodipodi="http://sodipodi.sourceforge.net/DTD/sodipodi-0.dtd"
   xmlns:inkscape="http://www.inkscape.org/namespaces/inkscape"
   height="24px"
   viewBox="0 0 24 24"
   width="24px"
   fill="#000000"
   version="1.1"
   id="svg3763"
   sodipodi:docname="report_problem_black_red_24dp.svg"
   inkscape:version="0.92.4 (5da689c313, 2019-01-14)">
  <metadata
     id="metadata3769">
    <rdf:RDF>
      <cc:Work
         rdf:about="">
        <dc:format>image/svg+xml</dc:format>
        <dc:type
           rdf:resource="http://purl.org/dc/dcmitype/StillImage" />
        <dc:title></dc:title>
      </cc:Work>
    </rdf:RDF>
  </metadata>
  <defs
     id="defs3767" />
  <sodipodi:namedview
     pagecolor="#ffffff"
     bordercolor="#666666"
     borderopacity="1"
     objecttolerance="10"
     gridtolerance="10"
     guidetolerance="10"
     inkscape:pageopacity="0"
     inkscape:pageshadow="2"
     inkscape:window-width="1920"
     inkscape:window-height="1021"
     id="namedview3765"
     showgrid="false"
     inkscape:zoom="11.313709"
     inkscape:cx="26.589386"
     inkscape:cy="0.25141132"
     inkscape:window-x="1600"
     inkscape:window-y="31"
     inkscape:window-maximized="1"
     inkscape:current-layer="svg3763" />
  <path
     d="M12 5.99L19.53 19H4.47L12 5.99M12 2L1 21h22L12 2zm1 14h-2v2h2v-2zm0-6h-2v4h2v-4z"
     id="path3761" />
  <path
     style="fill:#ff0000;stroke-width:0.02898551"
     d="M 4.682261,18.662319 C 4.782226,18.490942 6.466157,15.582246 8.4243293,12.198551 10.382501,8.8148551 11.992663,6.0466793 12.002466,6.0470489 c 0.01526,5.756e-4 7.450016,12.8289771 7.476761,12.9008861 0.0057,0.01527 -3.078972,0.02598 -7.48453,0.02598 H 4.5005059 Z m 8.338029,-1.65942 v -1.014493 h -1.014493 -1.014493 v 1.014493 1.014492 h 1.014493 1.014493 z m 0,-5 V 9.9884058 h -1.014493 -1.014493 v 2.0144932 2.014492 h 1.014493 1.014493 z"
     id="path3771"
     inkscape:connector-curvature="0" />
  <path
     style="fill:#ff0000;stroke-width:0.00390625"
     d="m 5.4150507,17.372699 c 0.00878,-0.02237 3.0624441,-5.290713 3.0671946,-5.291698 0.00335,-6.95e-4 0.00609,-2.02e-4 0.00609,0.0011 0,0.0018 -2.3867884,4.127104 -2.9596337,5.115402 -0.058998,0.101787 -0.1057343,0.178321 -0.1093724,0.179107 -0.00406,8.77e-4 -0.0056,-5.34e-4 -0.00428,-0.0039 z"
     id="path3773"
     inkscape:connector-curvature="0" />
  <path
     style="fill:#ff0000;stroke-width:0.00390625"
     d="m 10.993489,17.002843 v -1.013671 h 1.011719 1.011719 v 1.013671 1.013672 h -1.011719 -1.011719 z m 2.007813,-0.0039 V 15.99699 h -1.001953 -1.001953 v 1.001953 1.001953 h 1.001953 1.001953 z"
     id="path3775"
     inkscape:connector-curvature="0" />
  <path
     style="fill:#ff0000;stroke-width:0.00390625"
     d="m 10.994459,12.958898 9.69e-4,-1.057617 9.91e-4,1.049805 9.91e-4,1.049804 h 1.001946 1.001946 v -1.048828 c 0,-1.046224 1.9e-5,-1.048828 0.0078,-1.048828 0.0078,0 0.0078,0.0026 0.0078,1.056641 v 1.05664 h -1.011719 -1.011719 z"
     id="path3777"
     inkscape:connector-curvature="0" />
  <path
     style="fill:#ff0000;stroke-width:0.00390625"
     d="m 8.5911457,11.885923 c 0,-0.0026 3.0582473,-5.2877657 3.0625523,-5.2925647 0.0016,-0.00178 0.0076,-0.00266 0.01329,-0.00195 0.01014,0.00125 0.008,0.00539 -0.08787,0.1692507 -0.455706,0.7789678 -1.7369851,2.9852385 -2.7664753,4.763672 -0.1789762,0.309179 -0.221501,0.3786 -0.221501,0.361595 z"
     id="path3779"
     inkscape:connector-curvature="0" />
  <path
     style="fill:#ff0000;stroke-width:0.00390625"
     d="m 14.308384,10.00382 c -0.0031,-0.00483 -0.280593,-0.4825196 -0.616699,-1.0615235 -1.166771,-2.0099776 -1.67238,-2.877313 -1.685077,-2.890625 -0.005,-0.00521 -0.006,-0.00521 -0.0095,0 -0.0103,0.015417 -0.09932,0.1653649 -0.204324,0.3441474 -0.10859,0.1848908 -0.11671,0.1975447 -0.125661,0.1958336 -0.0053,-0.00101 -0.0096,-0.00278 -0.0096,-0.00393 0,-0.00116 0.07673,-0.1346593 0.170509,-0.2966698 0.13646,-0.2357439 0.171454,-0.2935397 0.175244,-0.2894316 0.0026,0.00282 0.522972,0.9007385 1.156372,1.9953674 0.6334,1.0946289 1.155007,1.9959473 1.159126,2.0029297 0.0065,0.010991 0.0067,0.012695 0.0013,0.012695 -0.0034,0 -0.0087,-0.004 -0.01175,-0.0088 z"
     id="path3781"
     inkscape:connector-curvature="0" />
  <path
     style="fill:#ff0000;stroke-width:0.00390625"
     d="m 10.994459,11.005773 -9.7e-4,-1.0166015 h 1.011719 1.011719 l -4.53e-4,0.9638675 c -2.49e-4,0.530127 -0.0013,0.960791 -0.0022,0.957031 -9.82e-4,-0.0038 -0.0033,-0.0068 -0.0051,-0.0068 -0.0018,0 -0.0041,0.0031 -0.0051,0.0068 -9.83e-4,0.0038 -0.002,-0.425147 -0.0022,-0.953125 L 13.001421,9.996984 H 11.999475 10.99753 l -9.92e-4,1.012695 -9.91e-4,1.012696 z"
     id="path3783"
     inkscape:connector-curvature="0" />
  <path
     style="fill:#ff0000;stroke-width:0.00390625"
     d="m 11.305814,18.986598 v -0.0098 l 0.940429,-8.6e-5 c 1.488674,-1.36e-4 5.050777,-0.0071 5.879883,-0.01156 0.78285,-0.0042 1.320572,-0.01015 1.343042,-0.01493 l 0.01297,-0.0028 -0.152002,-0.26561 c -0.143748,-0.251187 -0.5974,-1.038138 -0.990619,-1.718426 -0.09801,-0.169558 -0.177294,-0.309186 -0.176194,-0.310287 0.0011,-0.0011 0.0036,-3.6e-4 0.0056,0.0016 0.0028,0.0028 1.290373,2.225209 1.344726,2.321029 l 0.01163,0.02051 h -4.109748 -4.109748 z"
     id="path3785"
     inkscape:connector-curvature="0" />
  <path
     style="fill:#ff0000;stroke-width:0.00390625"
     d="m 8.0644885,19.000551 c 1.5013985,-5.4e-4 3.9570625,-5.4e-4 5.4570315,0 1.499969,5.4e-4 0.271551,9.82e-4 -2.729816,9.82e-4 -3.001367,0 -4.228614,-4.42e-4 -2.7272155,-9.82e-4 z"
     id="path3787"
     inkscape:connector-curvature="0" />
  <path
     style="fill:#ff0000;stroke-width:0.00390625"
     d="m 5.336626,18.987856 v -0.01172 h 2.984375 2.984375 v 0.01172 0.01172 H 8.321001 5.336626 Z"
     id="path3789"
     inkscape:connector-curvature="0" />
  <path
     style="fill:#ff0000;stroke-width:0.00390625"
     d="m 4.7105888,18.973724 c 0.1154786,-5.75e-4 0.3044434,-5.75e-4 0.4199219,0 0.1154785,5.75e-4 0.020996,10e-4 -0.2099609,10e-4 -0.230957,0 -0.3254395,-4.7e-4 -0.209961,-10e-4 z"
     id="path3791"
     inkscape:connector-curvature="0" />
  <path
     style="fill:#ff0000;stroke-width:0.00390625"
     d="m 4.4752373,18.997545 c 0,-0.0079 0.9361452,-1.618549 0.9407136,-1.618549 0.00309,0 0.00452,0.0024 0.00331,0.0055 -0.00226,0.0059 -0.7040931,1.218004 -0.8400194,1.450767 -0.044309,0.07588 -0.080562,0.138718 -0.080562,0.139649 0,9.3e-4 0.1880859,0.0017 0.4179687,0.0017 H 5.334617 v 0.01172 0.01172 H 4.9049248 c -0.2363281,0 -0.4296875,-0.0011 -0.4296875,-0.0025 z"
     id="path3793"
     inkscape:connector-curvature="0" />
</svg>
